<svg width="230" height="55" viewBox="0 0 230 55" fill="none" xmlns="http://www.w3.org/2000/svg">
<g clip-path="url(#clip0_10_1346)">
<path d="M47.6694 0.803952C47.3608 0.62592 46.993 0.57519 46.6464 0.662861C46.2999 0.750533 46.0028 0.969467 45.8202 1.27175L36.1488 17.3632C36.0992 17.4466 36.0592 17.5352 36.0294 17.6273C34.9473 18.0213 33.9373 18.5849 33.0386 19.296C30.1082 14.4065 24.7389 11.3277 18.8731 11.3277C9.82201 11.3277 2.45955 18.5484 2.43432 27.4318H0.300781L0.49155 28.9241C1.6017 37.5971 7.04786 45.1726 14.8786 49.1616V54.2827H35.0842C37.6454 54.2827 39.7291 52.2344 39.7291 49.7183V49.1623C47.5623 45.1714 53.006 37.5959 54.1186 28.9241L54.3094 27.4306H50.4565C50.4386 22.8964 47.478 19.0416 43.3599 17.5862L55.4263 6.18186C55.9629 5.67478 55.9802 4.83467 55.462 4.30763C55.3392 4.18216 55.1925 4.08167 55.0302 4.0119C54.8678 3.94214 54.6931 3.90447 54.5159 3.90104C54.3388 3.89762 54.1627 3.92851 53.9977 3.99195C53.8327 4.05539 53.682 4.15013 53.5543 4.27077L40.1131 16.9764C39.9925 16.9715 39.8725 16.9582 39.75 16.9582C39.6725 16.9582 39.598 16.9691 39.5217 16.9703L48.1457 2.62016C48.2359 2.47019 48.2951 2.30425 48.3199 2.13181C48.3448 1.95937 48.3348 1.78381 48.2906 1.61516C48.2464 1.4465 48.1687 1.28806 48.0621 1.14887C47.9556 1.00968 47.8221 0.892478 47.6694 0.803952ZM18.8725 13.9804C24.0399 13.9804 28.75 16.8374 31.0928 21.3135C30.2387 22.4673 29.6331 23.78 29.3131 25.1714C28.2392 20.4764 23.9697 16.957 18.8725 16.957C12.9851 16.957 8.19555 21.652 8.17032 27.4312H5.13524C5.15986 20.011 11.3112 13.9804 18.8725 13.9804ZM18.8725 22.5936C16.1463 22.5936 13.9279 24.7604 13.9026 27.4312H10.8719C10.8971 23.1146 14.4743 19.6103 18.8725 19.6103C23.2719 19.6103 26.8528 23.1146 26.8755 27.4312H23.8411C23.8171 24.7604 21.5986 22.5936 18.8725 22.5936ZM21.1383 27.4318H16.6066C16.6187 26.8488 16.8627 26.2936 17.2865 25.8851C17.7102 25.4766 18.28 25.2473 18.8737 25.2463C19.4672 25.2475 20.0366 25.4769 20.4599 25.8854C20.8832 26.2939 21.1267 26.8491 21.1383 27.4318ZM51.1974 30.0845C49.6965 37.793 44.374 44.3646 36.9974 47.5123H32.6743V50.1656H36.9685C36.8674 50.5819 36.6266 50.9526 36.2849 51.2183C35.9433 51.4839 35.5205 51.6289 35.0848 51.63H17.5802V50.1656H22.6442V47.5123H17.6128C10.2362 44.3664 4.91309 37.793 3.41094 30.0845H51.1974ZM37.4848 27.4318C37.4967 26.849 37.7404 26.294 38.1638 25.8855C38.5872 25.4771 39.1565 25.2476 39.75 25.2463C40.344 25.2468 40.9142 25.4759 41.3382 25.8845C41.7623 26.293 42.0064 26.8485 42.0183 27.4318H37.4848ZM39.75 19.6109C44.1512 19.6109 47.7334 23.1152 47.7568 27.4318H44.7205C44.6959 24.761 42.4768 22.5942 39.75 22.5942C37.0239 22.5942 34.8072 24.761 34.7826 27.4318H31.7494C31.774 23.1152 35.3512 19.6109 39.75 19.6109Z" fill="white"/>
<path d="M39.1741 42.9139C39.3901 42.9139 39.6086 42.8637 39.8098 42.7568C41.4591 41.8897 42.9065 40.6947 44.0598 39.248C45.2131 37.8012 46.0469 36.1345 46.5082 34.3539C46.5524 34.1848 46.5622 34.0088 46.537 33.8361C46.5118 33.6633 46.4522 33.4971 46.3614 33.347C46.2707 33.1969 46.1507 33.0659 46.0083 32.9615C45.8659 32.8571 45.7039 32.7813 45.5316 32.7385C45.3593 32.6957 45.1801 32.6867 45.0043 32.7121C44.8285 32.7374 44.6595 32.7967 44.507 32.8863C44.3545 32.976 44.2215 33.0943 44.1157 33.2346C44.0099 33.3748 43.9334 33.5342 43.8904 33.7035C43.5221 35.1266 42.856 36.4588 41.9345 37.6151C41.0131 38.7714 39.8565 39.7265 38.5384 40.4196C38.2726 40.5585 38.0618 40.7808 37.9395 41.051C37.8172 41.3213 37.7905 41.6239 37.8636 41.9108C37.9367 42.1976 38.1054 42.4522 38.3429 42.634C38.5804 42.8158 38.873 42.9143 39.1741 42.9139Z" fill="white"/>
<path d="M35.9059 45.0064C36.7903 45.0064 37.5072 44.3023 37.5072 43.4337C37.5072 42.5652 36.7903 41.8611 35.9059 41.8611C35.0216 41.8611 34.3047 42.5652 34.3047 43.4337C34.3047 44.3023 35.0216 45.0064 35.9059 45.0064Z" fill="white"/>
</g>
<path d="M83.9143 16.9023C86.3101 16.9023 88.0525 17.2944 89.1415 18.0784C90.2305 18.8407 90.775 19.8753 90.775 21.1821C90.775 22.3146 90.4156 23.3383 89.6969 24.2531C88.9999 25.1678 88.0416 25.941 86.8219 26.5726C85.6022 27.1825 84.2192 27.6072 82.6728 27.8468C84.9815 28.021 86.6694 28.5873 87.7367 29.5456C88.8257 30.5039 89.3702 31.6474 89.3702 32.976C89.3702 34.1521 89.087 35.1757 88.5207 36.0469C87.9762 36.9181 87.2248 37.6478 86.2665 38.2358C85.33 38.8239 84.2301 39.2704 82.9668 39.5753C81.7036 39.8584 80.3641 40 78.9484 40C78.2079 40 77.3912 39.9891 76.4982 39.9673C75.627 39.9238 74.5489 39.902 73.2638 39.902C72.7193 39.902 72.1531 39.9129 71.565 39.9347C70.9769 39.9347 70.4216 39.9456 69.8988 39.9673C69.3761 39.9673 68.9296 39.9782 68.5594 40L68.69 39.3466C69.4306 39.303 70.0077 39.2159 70.4216 39.0852C70.8354 38.9546 71.1621 38.6932 71.4017 38.3012C71.6412 37.9091 71.859 37.3211 72.0551 36.537L76.3675 20.3327C76.52 19.6793 76.6071 19.1565 76.6289 18.7645C76.6506 18.3507 76.4982 18.0458 76.1715 17.8497C75.8666 17.6319 75.2894 17.523 74.44 17.523L74.6033 16.8696C74.9736 16.8914 75.4092 16.9132 75.9101 16.935C76.4328 16.935 76.9882 16.9459 77.5763 16.9676C78.1643 16.9676 78.7088 16.9676 79.2098 16.9676C80.1463 16.9676 80.974 16.9568 81.6927 16.935C82.4332 16.9132 83.1737 16.9023 83.9143 16.9023ZM77.805 28.2715L77.9357 27.7161H80.3532C81.5947 27.7161 82.651 27.4003 83.5222 26.7686C84.4152 26.1152 85.0904 25.2658 85.5478 24.2204C86.0269 23.175 86.2665 22.0751 86.2665 20.9207C86.2665 19.8317 86.0487 18.9932 85.6131 18.4051C85.1993 17.8171 84.4697 17.523 83.4242 17.523C82.6619 17.523 82.1174 17.6755 81.7907 17.9804C81.464 18.2636 81.1809 18.8843 80.9413 19.8426L76.5308 36.537C76.4002 37.0815 76.313 37.5606 76.2695 37.9745C76.2477 38.3883 76.3566 38.7041 76.5962 38.9219C76.8358 39.1397 77.2823 39.2486 77.9357 39.2486C79.482 39.2486 80.7453 38.9546 81.7254 38.3665C82.7055 37.7784 83.4351 36.9726 83.9143 35.9489C84.3934 34.9035 84.633 33.7274 84.633 32.4206C84.633 31.6147 84.4914 30.9068 84.2083 30.297C83.9469 29.6654 83.5222 29.1753 82.9342 28.8269C82.3461 28.4566 81.562 28.2715 80.5819 28.2715H77.805ZM97.0098 17.523C97.0751 16.7172 97.4018 16.0747 97.9899 15.5955C98.5779 15.1163 99.264 14.8768 100.048 14.8768C100.767 14.8768 101.311 15.0837 101.682 15.4975C102.074 15.8895 102.237 16.4014 102.172 17.033C102.106 17.7735 101.78 18.3942 101.192 18.8952C100.603 19.3961 99.9174 19.6466 99.1333 19.6466C98.4146 19.6466 97.8592 19.4506 97.4672 19.0585C97.0969 18.6447 96.9444 18.1329 97.0098 17.523ZM95.8663 25.9192C96.2584 24.7431 96.1277 24.1551 95.4743 24.1551C95.0387 24.1551 94.6467 24.3837 94.2982 24.8411C93.9497 25.2767 93.5794 25.9846 93.1874 26.9647L92.632 28.5002H92.0113L92.8607 26.0499C93.1874 25.1787 93.5794 24.5035 94.0368 24.0244C94.4942 23.5234 95.006 23.175 95.5723 22.9789C96.1386 22.7829 96.694 22.6849 97.2385 22.6849C98.0008 22.6849 98.5779 22.8265 98.97 23.1096C99.362 23.3928 99.6234 23.763 99.7541 24.2204C99.8847 24.6778 99.9174 25.1787 99.8521 25.7232C99.7867 26.2459 99.6669 26.7578 99.4927 27.2587L96.0297 37.2231C95.8337 37.8111 95.7792 38.2576 95.8663 38.5625C95.9535 38.8457 96.1604 38.9872 96.4871 38.9872C96.8355 38.9872 97.184 38.8021 97.5325 38.4318C97.9028 38.0398 98.2948 37.2884 98.7086 36.1776L99.264 34.7075H99.8847L99.068 37.0924C98.7413 37.9636 98.3493 38.6496 97.8919 39.1506C97.4345 39.6297 96.9336 39.9673 96.3891 40.1634C95.8446 40.3594 95.3109 40.4574 94.7882 40.4574C93.8299 40.4574 93.1329 40.2505 92.6973 39.8366C92.2617 39.4011 92.0439 38.813 92.0439 38.0725C92.0439 37.3102 92.2182 36.439 92.5667 35.4589L95.8663 25.9192ZM103.288 39.51C103.462 39.5971 103.647 39.6733 103.843 39.7386C104.039 39.7822 104.311 39.804 104.66 39.804C105.488 39.804 106.174 39.5426 106.718 39.0199C107.284 38.4754 107.568 37.724 107.568 36.7657C107.568 36.0687 107.415 35.3609 107.11 34.6421C106.827 33.9234 106.391 33.1284 105.803 32.2572C105.281 31.4949 104.801 30.7435 104.366 30.003C103.952 29.2625 103.745 28.413 103.745 27.4547C103.745 26.5182 103.974 25.7014 104.431 25.0045C104.889 24.2857 105.542 23.7195 106.391 23.3056C107.241 22.8918 108.232 22.6849 109.364 22.6849C110.105 22.6849 110.835 22.772 111.553 22.9463C112.272 23.1205 112.86 23.4363 113.317 23.8937C113.775 24.3511 114.003 25.0154 114.003 25.8866C114.003 26.1915 113.938 26.5182 113.807 26.8667C113.677 27.1934 113.481 27.4765 113.219 27.7161C112.958 27.9557 112.61 28.0755 112.174 28.0755C111.717 28.0755 111.335 27.9012 111.031 27.5527C110.726 27.1825 110.573 26.7142 110.573 26.1479C110.573 25.647 110.66 25.1787 110.835 24.7431C111.031 24.3075 111.259 23.9264 111.521 23.5997C111.216 23.4254 110.78 23.3383 110.214 23.3383C109.43 23.3383 108.798 23.5888 108.319 24.0897C107.84 24.5907 107.6 25.2985 107.6 26.2133C107.6 26.6924 107.676 27.1498 107.829 27.5854C108.003 27.9992 108.232 28.4348 108.515 28.8922C108.82 29.3278 109.157 29.8396 109.528 30.4277C110.138 31.4078 110.617 32.2899 110.965 33.074C111.314 33.8363 111.488 34.6203 111.488 35.4262C111.488 36.3845 111.227 37.2448 110.704 38.0071C110.203 38.7694 109.506 39.3684 108.613 39.804C107.72 40.2396 106.675 40.4574 105.477 40.4574C104.627 40.4574 103.81 40.3376 103.026 40.098C102.264 39.8802 101.632 39.51 101.132 38.9872C100.652 38.4645 100.413 37.7458 100.413 36.831C100.413 36.3301 100.554 35.8727 100.837 35.4589C101.099 35.0233 101.513 34.8055 102.079 34.8055C102.645 34.8055 103.07 35.0342 103.353 35.4915C103.636 35.9489 103.778 36.5152 103.778 37.1904C103.778 37.6695 103.712 38.116 103.582 38.5299C103.473 38.9219 103.375 39.2486 103.288 39.51ZM126.777 23.1423L126.679 23.7957H115.734L115.898 23.1423H126.777ZM118.838 37.2231C118.664 37.8329 118.686 38.2794 118.903 38.5625C119.143 38.8457 119.459 38.9872 119.851 38.9872C120.308 38.9872 120.766 38.7694 121.223 38.3338C121.702 37.8982 122.138 37.1359 122.53 36.0469L123.02 34.7075H123.641L122.987 36.6677C122.53 38.018 121.898 38.9872 121.092 39.5753C120.286 40.1633 119.328 40.4574 118.217 40.4574C117.237 40.4574 116.486 40.2396 115.963 39.804C115.462 39.3684 115.157 38.7803 115.048 38.0398C114.961 37.2775 115.059 36.4172 115.342 35.4589L120.276 18.2418C121.06 18.22 121.789 18.1764 122.464 18.1111C123.161 18.0458 123.815 17.9369 124.425 17.7844L118.838 37.2231ZM129.633 40H125.614L129.535 25.9192C129.731 25.2658 129.796 24.8085 129.731 24.5471C129.665 24.2857 129.469 24.1551 129.143 24.1551C128.729 24.1551 128.348 24.362 127.999 24.7758C127.651 25.1896 127.291 25.9192 126.921 26.9647L126.366 28.5002H125.745L126.594 26.0499C126.899 25.1787 127.28 24.5035 127.738 24.0244C128.195 23.5234 128.696 23.175 129.241 22.9789C129.785 22.7829 130.341 22.6849 130.907 22.6849C131.604 22.6849 132.116 22.8265 132.442 23.1096C132.791 23.3928 133.009 23.763 133.096 24.2204C133.205 24.6778 133.226 25.1787 133.161 25.7232C133.117 26.2459 133.03 26.7578 132.9 27.2587L129.633 40ZM137.996 23.4363C137.517 23.4363 137.027 23.6105 136.526 23.959C136.025 24.2857 135.502 24.8193 134.958 25.5599C134.413 26.3004 133.858 27.2805 133.292 28.5002C132.747 29.6981 132.181 31.1682 131.593 32.9106C131.005 34.6312 130.417 36.6677 129.829 39.0199L130.613 34.6748C131.288 32.3879 131.92 30.4821 132.508 28.9575C133.117 27.4112 133.706 26.1806 134.272 25.2658C134.86 24.3293 135.481 23.665 136.134 23.273C136.787 22.8809 137.495 22.6849 138.258 22.6849C139.042 22.6849 139.641 22.9136 140.054 23.371C140.49 23.8284 140.708 24.3946 140.708 25.0698C140.708 25.6143 140.577 26.1261 140.316 26.6053C140.054 27.0627 139.706 27.4329 139.27 27.7161C138.857 27.9774 138.377 28.1081 137.833 28.1081C137.288 28.1081 136.853 27.9666 136.526 27.6834C136.221 27.4003 136.069 26.9865 136.069 26.442C136.069 25.9628 136.178 25.5272 136.395 25.1352C136.613 24.7431 136.896 24.4164 137.245 24.1551C137.593 23.8719 137.974 23.6759 138.388 23.567C138.345 23.5234 138.29 23.4908 138.225 23.469C138.16 23.4472 138.083 23.4363 137.996 23.4363ZM149.372 23.3383C148.806 23.3383 148.229 23.6323 147.641 24.2204C147.053 24.7867 146.497 25.5708 145.975 26.5726C145.452 27.5527 144.973 28.6526 144.537 29.8723C144.123 31.092 143.797 32.3552 143.557 33.662C143.317 34.947 143.198 36.1776 143.198 37.3537C143.198 38.2249 143.306 38.8566 143.524 39.2486C143.764 39.6188 144.112 39.804 144.57 39.804C145.114 39.804 145.68 39.5208 146.269 38.9546C146.857 38.3883 147.412 37.626 147.935 36.6677C148.479 35.6876 148.958 34.5986 149.372 33.4007C149.786 32.181 150.113 30.9177 150.352 29.6109C150.592 28.3041 150.712 27.03 150.712 25.7885C150.712 24.8738 150.592 24.2422 150.352 23.8937C150.134 23.5234 149.808 23.3383 149.372 23.3383ZM139.343 35.1648C139.343 34.1847 139.473 33.1284 139.735 31.9959C140.018 30.8633 140.432 29.7525 140.976 28.6635C141.521 27.5527 142.196 26.5508 143.002 25.6579C143.829 24.7431 144.788 24.0244 145.877 23.5017C146.966 22.9572 148.196 22.6849 149.568 22.6849C151.136 22.6849 152.356 23.1314 153.227 24.0244C154.12 24.8956 154.567 26.2133 154.567 27.9774C154.567 28.9575 154.425 30.0139 154.142 31.1464C153.881 32.279 153.478 33.4007 152.933 34.5114C152.389 35.6004 151.703 36.6023 150.875 37.5171C150.069 38.4101 149.122 39.1288 148.033 39.6733C146.944 40.196 145.713 40.4574 144.341 40.4574C142.773 40.4574 141.542 40.0109 140.649 39.1179C139.778 38.2249 139.343 36.9072 139.343 35.1648ZM177.306 16.9023C179.702 16.9023 181.444 17.2944 182.533 18.0784C183.622 18.8407 184.166 19.8753 184.166 21.1821C184.166 22.3146 183.807 23.3383 183.088 24.2531C182.391 25.1678 181.433 25.941 180.213 26.5726C178.994 27.1825 177.611 27.6072 176.064 27.8468C178.373 28.021 180.061 28.5873 181.128 29.5456C182.217 30.5039 182.762 31.6474 182.762 32.976C182.762 34.1521 182.478 35.1757 181.912 36.0469C181.368 36.9181 180.616 37.6478 179.658 38.2358C178.721 38.8239 177.622 39.2704 176.358 39.5753C175.095 39.8584 173.756 40 172.34 40C171.599 40 170.783 39.9891 169.89 39.9673C169.018 39.9238 167.94 39.902 166.655 39.902C166.111 39.902 165.545 39.9129 164.956 39.9347C164.368 39.9347 163.813 39.9456 163.29 39.9673C162.768 39.9673 162.321 39.9782 161.951 40L162.081 39.3466C162.822 39.303 163.399 39.2159 163.813 39.0852C164.227 38.9546 164.554 38.6932 164.793 38.3012C165.033 37.9091 165.25 37.3211 165.447 36.537L169.759 20.3327C169.911 19.6793 169.999 19.1565 170.02 18.7645C170.042 18.3507 169.89 18.0458 169.563 17.8497C169.258 17.6319 168.681 17.523 167.831 17.523L167.995 16.8696C168.365 16.8914 168.801 16.9132 169.302 16.935C169.824 16.935 170.38 16.9459 170.968 16.9676C171.556 16.9676 172.1 16.9676 172.601 16.9676C173.538 16.9676 174.365 16.9568 175.084 16.935C175.825 16.9132 176.565 16.9023 177.306 16.9023ZM171.196 28.2715L171.327 27.7161H173.745C174.986 27.7161 176.042 27.4003 176.914 26.7686C177.807 26.1152 178.482 25.2658 178.939 24.2204C179.418 23.175 179.658 22.0751 179.658 20.9207C179.658 19.8317 179.44 18.9932 179.005 18.4051C178.591 17.8171 177.861 17.523 176.816 17.523C176.053 17.523 175.509 17.6755 175.182 17.9804C174.855 18.2636 174.572 18.8843 174.333 19.8426L169.922 36.537C169.792 37.0815 169.704 37.5606 169.661 37.9745C169.639 38.3883 169.748 38.7041 169.988 38.9219C170.227 39.1397 170.674 39.2486 171.327 39.2486C172.873 39.2486 174.137 38.9546 175.117 38.3665C176.097 37.7784 176.827 36.9726 177.306 35.9489C177.785 34.9035 178.024 33.7274 178.024 32.4206C178.024 31.6147 177.883 30.9068 177.6 30.297C177.338 29.6654 176.914 29.1753 176.326 28.8269C175.738 28.4566 174.953 28.2715 173.973 28.2715H171.196ZM188.702 37.2231C188.528 37.8111 188.485 38.2576 188.572 38.5625C188.681 38.8457 188.898 38.9872 189.225 38.9872C189.53 38.9872 189.857 38.8021 190.205 38.4318C190.575 38.0398 190.968 37.2884 191.381 36.1776L191.904 34.7075H192.525L191.708 37.0924C191.403 37.9636 191.022 38.6496 190.565 39.1506C190.107 39.6297 189.617 39.9673 189.094 40.1634C188.572 40.3594 188.038 40.4574 187.494 40.4574C186.797 40.4574 186.241 40.3267 185.827 40.0653C185.414 39.804 185.13 39.4446 184.978 38.9872C184.826 38.5299 184.771 38.0071 184.815 37.4191C184.858 36.8092 184.989 36.1558 185.207 35.4589L190.401 18.2091C190.619 17.4686 190.597 16.9241 190.336 16.5756C190.075 16.2271 189.41 16.0529 188.343 16.0529L188.572 15.3668C189.987 15.345 191.251 15.2252 192.361 15.0074C193.472 14.7679 194.539 14.4412 195.563 14.0274L188.702 37.2231ZM199.573 17.523C199.638 16.7172 199.965 16.0747 200.553 15.5955C201.141 15.1163 201.827 14.8768 202.611 14.8768C203.33 14.8768 203.874 15.0837 204.244 15.4975C204.636 15.8895 204.8 16.4014 204.734 17.033C204.669 17.7735 204.342 18.3942 203.754 18.8952C203.166 19.3961 202.48 19.6466 201.696 19.6466C200.977 19.6466 200.422 19.4506 200.03 19.0585C199.66 18.6447 199.507 18.1329 199.573 17.523ZM198.429 25.9192C198.821 24.7431 198.69 24.1551 198.037 24.1551C197.601 24.1551 197.209 24.3837 196.861 24.8411C196.512 25.2767 196.142 25.9846 195.75 26.9647L195.195 28.5002H194.574L195.423 26.0499C195.75 25.1787 196.142 24.5035 196.6 24.0244C197.057 23.5234 197.569 23.175 198.135 22.9789C198.701 22.7829 199.257 22.6849 199.801 22.6849C200.564 22.6849 201.141 22.8265 201.533 23.1096C201.925 23.3928 202.186 23.763 202.317 24.2204C202.447 24.6778 202.48 25.1787 202.415 25.7232C202.349 26.2459 202.23 26.7578 202.055 27.2587L198.592 37.2231C198.396 37.8111 198.342 38.2576 198.429 38.5625C198.516 38.8457 198.723 38.9872 199.05 38.9872C199.398 38.9872 199.747 38.8021 200.095 38.4318C200.466 38.0398 200.858 37.2884 201.271 36.1776L201.827 34.7075H202.447L201.631 37.0924C201.304 37.9636 200.912 38.6496 200.455 39.1506C199.997 39.6297 199.496 39.9673 198.952 40.1634C198.407 40.3594 197.874 40.4574 197.351 40.4574C196.393 40.4574 195.696 40.2505 195.26 39.8366C194.824 39.4011 194.607 38.813 194.607 38.0725C194.607 37.3102 194.781 36.439 195.129 35.4589L198.429 25.9192ZM205.85 39.51C206.025 39.5971 206.21 39.6733 206.406 39.7386C206.602 39.7822 206.874 39.804 207.223 39.804C208.05 39.804 208.736 39.5426 209.281 39.0199C209.847 38.4754 210.13 37.724 210.13 36.7657C210.13 36.0687 209.978 35.3609 209.673 34.6421C209.39 33.9234 208.954 33.1284 208.366 32.2572C207.843 31.4949 207.364 30.7435 206.929 30.003C206.515 29.2625 206.308 28.413 206.308 27.4547C206.308 26.5182 206.537 25.7014 206.994 25.0045C207.451 24.2857 208.105 23.7195 208.954 23.3056C209.804 22.8918 210.795 22.6849 211.927 22.6849C212.668 22.6849 213.397 22.772 214.116 22.9463C214.835 23.1205 215.423 23.4363 215.88 23.8937C216.338 24.3511 216.566 25.0154 216.566 25.8866C216.566 26.1915 216.501 26.5182 216.37 26.8667C216.24 27.1934 216.044 27.4765 215.782 27.7161C215.521 27.9557 215.172 28.0755 214.737 28.0755C214.279 28.0755 213.898 27.9012 213.593 27.5527C213.288 27.1825 213.136 26.7142 213.136 26.1479C213.136 25.647 213.223 25.1787 213.397 24.7431C213.593 24.3075 213.822 23.9264 214.083 23.5997C213.778 23.4254 213.343 23.3383 212.777 23.3383C211.992 23.3383 211.361 23.5888 210.882 24.0897C210.402 24.5907 210.163 25.2985 210.163 26.2133C210.163 26.6924 210.239 27.1498 210.392 27.5854C210.566 27.9992 210.795 28.4348 211.078 28.8922C211.383 29.3278 211.72 29.8396 212.09 30.4277C212.7 31.4078 213.179 32.2899 213.528 33.074C213.876 33.8363 214.051 34.6203 214.051 35.4262C214.051 36.3845 213.789 37.2448 213.267 38.0071C212.766 38.7694 212.069 39.3684 211.176 39.804C210.283 40.2396 209.237 40.4574 208.039 40.4574C207.19 40.4574 206.373 40.3376 205.589 40.098C204.827 39.8802 204.195 39.51 203.694 38.9872C203.215 38.4645 202.976 37.7458 202.976 36.831C202.976 36.3301 203.117 35.8727 203.4 35.4589C203.662 35.0233 204.075 34.8055 204.642 34.8055C205.208 34.8055 205.633 35.0342 205.916 35.4915C206.199 35.9489 206.341 36.5152 206.341 37.1904C206.341 37.6695 206.275 38.116 206.144 38.5299C206.036 38.9219 205.938 39.2486 205.85 39.51ZM218.755 39.51C218.929 39.5971 219.114 39.6733 219.31 39.7386C219.506 39.7822 219.778 39.804 220.127 39.804C220.954 39.804 221.64 39.5426 222.185 39.0199C222.751 38.4754 223.034 37.724 223.034 36.7657C223.034 36.0687 222.882 35.3609 222.577 34.6421C222.294 33.9234 221.858 33.1284 221.27 32.2572C220.747 31.4949 220.268 30.7435 219.833 30.003C219.419 29.2625 219.212 28.413 219.212 27.4547C219.212 26.5182 219.441 25.7014 219.898 25.0045C220.355 24.2857 221.009 23.7195 221.858 23.3056C222.708 22.8918 223.699 22.6849 224.831 22.6849C225.572 22.6849 226.301 22.772 227.02 22.9463C227.739 23.1205 228.327 23.4363 228.784 23.8937C229.242 24.3511 229.47 25.0154 229.47 25.8866C229.47 26.1915 229.405 26.5182 229.274 26.8667C229.144 27.1934 228.948 27.4765 228.686 27.7161C228.425 27.9557 228.076 28.0755 227.641 28.0755C227.183 28.0755 226.802 27.9012 226.497 27.5527C226.192 27.1825 226.04 26.7142 226.04 26.1479C226.04 25.647 226.127 25.1787 226.301 24.7431C226.497 24.3075 226.726 23.9264 226.987 23.5997C226.682 23.4254 226.247 23.3383 225.681 23.3383C224.897 23.3383 224.265 23.5888 223.786 24.0897C223.307 24.5907 223.067 25.2985 223.067 26.2133C223.067 26.6924 223.143 27.1498 223.296 27.5854C223.47 27.9992 223.699 28.4348 223.982 28.8922C224.287 29.3278 224.624 29.8396 224.995 30.4277C225.604 31.4078 226.084 32.2899 226.432 33.074C226.78 33.8363 226.955 34.6203 226.955 35.4262C226.955 36.3845 226.693 37.2448 226.171 38.0071C225.67 38.7694 224.973 39.3684 224.08 39.804C223.187 40.2396 222.141 40.4574 220.943 40.4574C220.094 40.4574 219.277 40.3376 218.493 40.098C217.731 39.8802 217.099 39.51 216.598 38.9872C216.119 38.4645 215.88 37.7458 215.88 36.831C215.88 36.3301 216.021 35.8727 216.304 35.4589C216.566 35.0233 216.979 34.8055 217.546 34.8055C218.112 34.8055 218.537 35.0342 218.82 35.4915C219.103 35.9489 219.245 36.5152 219.245 37.1904C219.245 37.6695 219.179 38.116 219.049 38.5299C218.94 38.9219 218.842 39.2486 218.755 39.51Z" fill="white"/>
<defs>
<clipPath id="clip0_10_1346">
<rect width="56" height="55" fill="white"/>
</clipPath>
</defs>
</svg>
