<svg width="28" height="28" viewBox="0 0 28 28" fill="none" xmlns="http://www.w3.org/2000/svg">
<circle cx="13.5855" cy="13.5855" r="13.5855" fill="#F9F9F7" fill-opacity="0.12"/>
<path d="M13.5873 8.20062C15.3425 8.20062 15.5503 8.20719 16.2437 8.23881C16.6606 8.24391 17.0735 8.32046 17.4645 8.46513C17.7481 8.57449 18.0056 8.742 18.2205 8.9569C18.4354 9.1718 18.6029 9.42932 18.7122 9.71287C18.8569 10.1039 18.9335 10.5168 18.9386 10.9337C18.9699 11.6271 18.9768 11.8349 18.9768 13.5901C18.9768 15.3452 18.9702 15.5531 18.9386 16.2464C18.9335 16.6633 18.8569 17.0763 18.7122 17.4673C18.6029 17.7508 18.4354 18.0083 18.2205 18.2232C18.0056 18.4381 17.7481 18.6056 17.4645 18.715C17.0735 18.8597 16.6606 18.9362 16.2437 18.9413C15.5506 18.9726 15.3428 18.9795 13.5873 18.9795C11.8318 18.9795 11.624 18.9729 10.9309 18.9413C10.5141 18.9362 10.1011 18.8597 9.71012 18.715C9.42656 18.6056 9.16905 18.4381 8.95415 18.2232C8.73925 18.0083 8.57173 17.7508 8.46238 17.4673C8.31771 17.0763 8.24116 16.6633 8.23606 16.2464C8.20475 15.5531 8.19787 15.3452 8.19787 13.5901C8.19787 11.8349 8.20444 11.6271 8.23606 10.9337C8.24116 10.5168 8.31771 10.1039 8.46238 9.71287C8.57173 9.42932 8.73925 9.1718 8.95415 8.9569C9.16905 8.742 9.42656 8.57449 9.71012 8.46513C10.1011 8.32046 10.5141 8.24391 10.9309 8.23881C11.6243 8.20751 11.8322 8.20062 13.5873 8.20062ZM13.5873 7.01611C11.803 7.01611 11.5783 7.02363 10.8771 7.05556C10.3315 7.06641 9.79169 7.16971 9.28064 7.36107C8.84224 7.52625 8.44516 7.78509 8.1171 8.11955C7.78235 8.44772 7.52328 8.84503 7.35801 9.28371C7.16664 9.79476 7.06334 10.3346 7.05249 10.8802C7.02118 11.5807 7.01367 11.8055 7.01367 13.5898C7.01367 15.374 7.02118 15.5988 7.05311 16.3C7.06397 16.8456 7.16727 17.3854 7.35863 17.8964C7.52373 18.3351 7.78258 18.7324 8.1171 19.0606C8.44534 19.3951 8.84264 19.654 9.28127 19.8191C9.79232 20.0104 10.3321 20.1137 10.8777 20.1246C11.5789 20.1559 11.8027 20.164 13.5879 20.164C15.3732 20.164 15.597 20.1565 16.2982 20.1246C16.8438 20.1137 17.3836 20.0104 17.8946 19.8191C18.3312 19.6498 18.7276 19.3914 19.0585 19.0602C19.3895 18.7291 19.6477 18.3325 19.8166 17.8958C20.008 17.3848 20.1113 16.8449 20.1221 16.2993C20.1534 15.5988 20.161 15.374 20.161 13.5898C20.161 11.8055 20.1534 11.5807 20.1215 10.8795C20.1107 10.3339 20.0074 9.79413 19.816 9.28308C19.6509 8.84446 19.392 8.44715 19.0575 8.11892C18.7293 7.78439 18.332 7.52554 17.8934 7.36045C17.3823 7.16909 16.8425 7.06578 16.2969 7.05493C15.5963 7.02363 15.3716 7.01611 13.5873 7.01611Z" fill="white"/>
<path d="M13.5857 10.2178C12.918 10.2178 12.2654 10.4158 11.7102 10.7867C11.1551 11.1576 10.7224 11.6848 10.4669 12.3017C10.2114 12.9185 10.1446 13.5972 10.2748 14.2521C10.4051 14.9069 10.7266 15.5084 11.1987 15.9805C11.6708 16.4526 12.2723 16.7741 12.9271 16.9044C13.5819 17.0346 14.2607 16.9678 14.8775 16.7123C15.4943 16.4568 16.0216 16.0241 16.3925 15.4689C16.7634 14.9138 16.9614 14.2611 16.9614 13.5935C16.9614 12.6982 16.6057 11.8396 15.9727 11.2065C15.3396 10.5734 14.481 10.2178 13.5857 10.2178ZM13.5857 15.7847C13.1523 15.7847 12.7287 15.6562 12.3683 15.4154C12.008 15.1746 11.7271 14.8324 11.5613 14.432C11.3954 14.0316 11.352 13.5911 11.4366 13.166C11.5211 12.741 11.7298 12.3505 12.0363 12.0441C12.3427 11.7376 12.7331 11.5289 13.1582 11.4444C13.5833 11.3598 14.0238 11.4032 14.4242 11.5691C14.8246 11.7349 15.1668 12.0158 15.4076 12.3761C15.6484 12.7365 15.7769 13.1601 15.7769 13.5935C15.7769 14.1746 15.546 14.732 15.1351 15.1429C14.7242 15.5538 14.1668 15.7847 13.5857 15.7847Z" fill="white"/>
<path d="M17.1062 10.8711C17.5419 10.8711 17.8951 10.518 17.8951 10.0823C17.8951 9.64663 17.5419 9.29346 17.1062 9.29346C16.6706 9.29346 16.3174 9.64663 16.3174 10.0823C16.3174 10.518 16.6706 10.8711 17.1062 10.8711Z" fill="white"/>
</svg>
