<svg width="28" height="28" viewBox="0 0 28 28" fill="none" xmlns="http://www.w3.org/2000/svg">
<circle cx="13.5855" cy="13.5855" r="13.5855" fill="#F9F9F7" fill-opacity="0.12"/>
<path fill-rule="evenodd" clip-rule="evenodd" d="M14.1928 7.01611C10.7082 7.01611 7.90479 9.81954 7.90479 13.3042C7.90479 16.0814 9.7126 18.4394 12.2016 19.2778C12.516 19.3302 12.6208 19.1468 12.6208 18.9634C12.6208 18.8062 12.6208 18.4132 12.6208 17.8892C10.8654 18.2822 10.4986 17.0508 10.4986 17.0508C10.2104 16.3172 9.7912 16.1338 9.7912 16.1338C9.2148 15.7408 9.8436 15.7408 9.8436 15.7408C10.4724 15.7932 10.813 16.3958 10.813 16.3958C11.3632 17.3652 12.2802 17.077 12.647 16.9198C12.6994 16.5006 12.8566 16.2386 13.04 16.0814C11.6514 15.9242 10.1842 15.374 10.1842 12.9636C10.1842 12.2824 10.42 11.706 10.8392 11.2868C10.7868 11.1295 10.551 10.5007 10.8916 9.60994C10.8916 9.60994 11.4156 9.45273 12.6208 10.2649C13.1186 10.1339 13.6688 10.0553 14.1928 10.0553C14.7168 10.0553 15.2671 10.1339 15.7649 10.2649C16.9701 9.45273 17.4941 9.60994 17.4941 9.60994C17.8347 10.4745 17.6251 11.1033 17.5465 11.2868C17.9395 11.7322 18.2015 12.2824 18.2015 12.9636C18.2015 15.374 16.7343 15.898 15.3195 16.0552C15.5553 16.2386 15.7387 16.6316 15.7387 17.208C15.7387 18.0464 15.7387 18.7276 15.7387 18.9372C15.7387 19.0944 15.8435 19.304 16.1841 19.2516C18.6731 18.4394 20.4809 16.0814 20.4809 13.3042C20.4809 9.81954 17.6775 7.01611 14.1928 7.01611Z" fill="white"/>
</svg>
