<svg width="51" height="50" viewBox="0 0 51 50" fill="none" xmlns="http://www.w3.org/2000/svg">
<path d="M27.9715 7.37707L27.9296 7.24794L28.1426 7.52297C28.3254 7.72757 28.4763 7.68229 28.6054 7.52297C28.6054 7.52297 29.7341 6.22662 28.8503 4.7173C28.3639 3.71779 26.4454 1.33976 25.4358 0.595154C23.6112 -0.563674 22.434 0.326829 22.434 0.326829C22.2881 0.435836 22.1807 0.595154 22.2881 0.742733L22.5732 1.03621C19.1302 1.72547 18.6237 4.40705 18.399 5.59438L18.3621 5.7906L17.8993 9.0105C17.7517 10.1341 18.3621 10.7429 19.4354 10.7429H22.9371C24.1579 10.7596 26.7003 10.7915 27.9715 7.37707Z" fill="#474747"/>
<path d="M16.7049 5.55247L16.3309 8.15523L4.47767 19.1197C4.0278 19.4953 3.69155 19.989 3.50667 20.5451C3.43528 20.7527 3.38417 20.9667 3.35406 21.1841V22.0394C3.80854 22.0763 4.33345 22.0394 4.90532 21.9119L42.4104 11.1521C42.5352 11.1163 42.6666 11.1099 42.7942 11.1335C42.9218 11.157 43.0423 11.2099 43.146 11.288C43.2497 11.366 43.3339 11.4671 43.3919 11.5832C43.4499 11.6993 43.4802 11.8273 43.4804 11.9571V20.0839C43.4812 20.2639 43.4239 20.4394 43.3169 20.5841C43.2099 20.7289 43.059 20.8352 42.8867 20.8872C35.709 23.0506 7.17434 31.6488 6.47334 31.8383C5.6801 32.0563 3.92425 32.385 3.35406 32.3112V37.5687C3.86556 37.6391 4.39717 37.619 4.90532 37.4831L42.4088 26.6244C42.5336 26.5882 42.6652 26.5816 42.793 26.6051C42.9209 26.6285 43.0415 26.6813 43.1455 26.7594C43.2494 26.8375 43.3338 26.9386 43.3919 27.0549C43.45 27.1712 43.4803 27.2994 43.4804 27.4293V35.2309L44.7449 34.8687L44.7566 34.8653L44.827 34.8418C45.2376 34.7066 45.6328 34.5284 46.006 34.3102C46.7657 33.8574 46.8344 33.5505 46.8344 33.5119V11.6703C46.8344 11.3047 46.6835 10.6574 46.2861 10.0318C45.9138 9.44486 45.3855 8.97026 44.6929 8.74051L30.8456 5.49378C30.7844 4.94133 30.6097 4.40748 30.3325 3.92575C29.992 3.25326 29.3212 2.33257 28.6739 1.54102L45.523 5.49042C45.5625 5.50015 45.6017 5.51134 45.6404 5.52396C47.2587 6.02707 48.3974 7.10037 49.1169 8.23405C49.8212 9.34089 50.1885 10.6037 50.1885 11.6703V33.5119C50.1885 35.4908 48.6071 36.6648 47.7182 37.193C47.0958 37.5596 46.4336 37.8539 45.7444 38.0701L45.7008 38.0835L45.6857 38.0869L45.6806 38.0886C45.6806 38.0886 45.4358 38.159 45.6773 38.0886L4.74432 49.8378C4.72043 49.8445 4.69639 49.8507 4.67221 49.8563C3.47649 50.1414 2.11809 50.0659 1.1169 49.0429C0.219691 48.1273 0 46.8209 0 45.6553V21.112L0.00167711 21.0214V20.9963L0.00670824 20.9594C0.0167112 20.8097 0.0351882 20.6608 0.0620502 20.5133C0.109007 20.2416 0.191182 19.8743 0.335406 19.4534C0.704246 18.364 1.35524 17.3919 2.22207 16.636L17.9794 2.06257C17.9435 2.11404 17.9082 2.16603 17.8738 2.21854C17.1091 3.40252 16.876 4.63849 16.7619 5.2439L16.7552 5.28415C16.7394 5.37376 16.7226 5.46321 16.7049 5.55247Z" fill="#474747"/>
</svg>
