<svg width="30" height="30" viewBox="0 0 30 30" fill="none" xmlns="http://www.w3.org/2000/svg">
<rect width="30" height="30" rx="15" fill="#AD343E"/>
<rect width="15.07" height="15.07" transform="translate(7 7.00015)" fill="#AD343E"/>
<path d="M12.6513 15.791L16.4188 12.0235M12.9653 12.3375H12.9716M16.1049 15.477H16.1112M18.9305 20.1864V10.1397C18.9305 9.44617 18.3682 8.88391 17.6746 8.88391H11.3955C10.7019 8.88391 10.1396 9.44617 10.1396 10.1397V20.1864L12.3374 18.9306L14.5351 20.1864L16.7328 18.9306L18.9305 20.1864ZM13.2792 12.3375C13.2792 12.5108 13.1387 12.6514 12.9653 12.6514C12.7919 12.6514 12.6513 12.5108 12.6513 12.3375C12.6513 12.1641 12.7919 12.0235 12.9653 12.0235C13.1387 12.0235 13.2792 12.1641 13.2792 12.3375ZM16.4188 15.477C16.4188 15.6504 16.2783 15.791 16.1049 15.791C15.9315 15.791 15.7909 15.6504 15.7909 15.477C15.7909 15.3036 15.9315 15.1631 16.1049 15.1631C16.2783 15.1631 16.4188 15.3036 16.4188 15.477Z" stroke="white" stroke-width="1.5" stroke-linecap="round" stroke-linejoin="round"/>
</svg>
