<svg width="350" height="210" viewBox="0 0 350 210" fill="none" xmlns="http://www.w3.org/2000/svg">
<g filter="url(#filter0_d_0_698)">
<rect x="59.5745" y="56.5957" width="230" height="90" rx="12" fill="white"/>
<rect x="60.0745" y="57.0957" width="229" height="89" rx="11.5" stroke="#F9F9F7"/>
</g>
<path d="M148.181 90.7713C149.575 89.9145 151.235 89.5756 152.857 89.5966C155.295 89.6834 157.724 90.3201 159.872 91.4847C158.502 92.7033 157.055 93.8359 155.664 95.0353C154.75 94.8179 153.807 94.469 152.859 94.6864C152.226 94.8261 151.583 95.1294 151.211 95.6866C150.839 96.2392 150.885 97.0376 151.339 97.5318C151.876 98.1383 152.67 98.4114 153.414 98.6663C155.063 99.1851 156.795 99.5715 158.251 100.548C159.218 101.175 160.026 102.074 160.432 103.159C160.83 104.168 160.884 105.278 160.804 106.35C160.72 107.788 160.361 109.246 159.552 110.454C158.714 111.722 157.384 112.582 155.992 113.134C153.041 114.25 149.692 114.01 146.797 112.842C145.742 112.418 144.739 111.875 143.809 111.222C144.828 109.82 145.862 108.429 146.911 107.049C148.186 107.631 149.479 108.184 150.816 108.601C151.718 108.917 152.754 108.775 153.57 108.29C154.194 107.929 154.605 107.233 154.594 106.508C154.63 105.902 154.26 105.351 153.791 105.002C152.825 104.286 151.621 104.043 150.492 103.702C149.057 103.267 147.559 102.821 146.4 101.827C145.451 101.024 144.943 99.8108 144.801 98.5978C144.644 97.1289 144.726 95.6007 145.284 94.2178C145.839 92.7787 146.859 91.5659 148.181 90.7713ZM113.305 90.1794C115.252 90.1812 117.2 90.1794 119.147 90.1812V103.582C119.147 105.018 119.234 106.472 118.967 107.894C118.706 109.312 118.119 110.702 117.107 111.749C116.002 112.911 114.437 113.55 112.863 113.734C111.721 113.864 110.538 113.864 109.436 113.503C107.815 113.007 106.484 111.824 105.574 110.419C106.723 109.201 107.884 107.998 109.031 106.78C109.467 107.35 109.931 107.911 110.503 108.353C110.891 108.648 111.396 108.838 111.882 108.694C112.395 108.599 112.812 108.2 113 107.723C113.239 107.136 113.297 106.493 113.304 105.865L113.305 90.1794ZM122.306 90.1894C124.253 90.1821 126.2 90.1703 128.147 90.1821C128.157 93.8606 128.148 97.5427 128.15 101.222C128.157 102.639 128.094 104.077 128.433 105.466C128.654 106.399 129.105 107.333 129.911 107.896C130.809 108.529 131.965 108.641 133.031 108.539C133.945 108.445 134.865 108.042 135.423 107.291C135.906 106.663 136.149 105.89 136.284 105.119C136.438 104.209 136.472 103.282 136.47 102.359C136.469 98.3009 136.472 94.2388 136.469 90.1794C138.416 90.1739 140.363 90.1794 142.312 90.1776C142.313 94.7001 142.312 99.2235 142.313 103.746C142.309 105.281 142.267 106.843 141.811 108.32C141.408 109.655 140.61 110.837 139.523 111.71C138.243 112.746 136.648 113.313 135.044 113.603C133.247 113.914 131.396 113.906 129.602 113.58C128.014 113.28 126.438 112.7 125.177 111.662C124.511 111.102 123.927 110.435 123.5 109.675C122.739 108.352 122.458 106.815 122.365 105.309C122.284 104.141 122.315 102.969 122.309 101.797C122.306 97.9291 122.307 94.0597 122.306 90.1894ZM160.852 90.1812C167.18 90.1794 173.507 90.1812 179.832 90.1812C179.853 91.8885 179.868 93.5975 179.823 95.3048L173.274 95.3039C173.266 101.381 173.283 107.458 173.28 113.535C171.331 113.54 169.382 113.535 167.435 113.538C167.406 107.462 167.43 101.383 167.422 95.3057C165.236 95.3048 163.05 95.3002 160.865 95.3084C160.836 93.5994 160.861 91.8903 160.852 90.1812ZM187.194 90.1812C192.021 90.1794 196.847 90.1794 201.676 90.1812L201.675 95.2929C198.798 95.323 195.919 95.2966 193.042 95.3066C193.042 96.6311 193.039 97.9547 193.043 99.281C195.437 99.313 197.832 99.2883 200.227 99.2975C200.22 101.019 200.24 102.742 200.217 104.464C199.695 104.532 199.148 104.473 198.617 104.492C196.758 104.492 194.9 104.49 193.041 104.492C193.045 105.799 193.036 107.102 193.047 108.408C195.922 108.405 198.8 108.408 201.676 108.406C201.675 110.116 201.677 111.828 201.674 113.539H187.193L187.194 90.1812ZM211.672 90.1876C213.815 90.1894 215.956 90.1858 218.098 90.1894C221.031 97.973 223.946 105.759 226.882 113.539C224.731 113.55 222.581 113.54 220.431 113.545C219.933 112.209 219.439 110.871 218.948 109.533C216.183 109.523 213.418 109.526 210.652 109.531C210.124 110.87 209.586 112.205 209.059 113.545C206.926 113.525 204.79 113.544 202.657 113.533C205.664 105.752 208.662 97.9684 211.672 90.1876ZM223.892 90.1849C230.224 90.1739 236.556 90.1812 242.888 90.1812C242.885 91.8894 242.893 93.5966 242.885 95.3039C240.695 95.302 238.505 95.3093 236.316 95.3011C236.295 101.379 236.336 107.46 236.32 113.538C234.368 113.535 232.419 113.541 230.471 113.535C230.452 107.458 230.468 101.381 230.463 95.3048C228.386 95.3048 226.308 95.302 224.233 95.3066C224.115 95.3056 223.998 95.289 223.885 95.2573C223.902 93.5674 223.884 91.8748 223.892 90.1849Z" fill="#FF3131"/>
<path d="M213.721 95.7052C215.477 98.5871 217.255 101.457 219.007 104.342C218.074 104.319 217.141 104.255 216.209 104.244C216.394 105.203 216.593 106.159 216.787 107.115C216.291 107.211 215.801 107.347 215.297 107.4C215.12 106.445 214.916 105.494 214.725 104.541C213.871 104.904 213.047 105.333 212.195 105.704C212.42 103.963 212.721 102.231 212.975 100.493C213.228 98.8977 213.453 97.2992 213.721 95.7052Z" fill="white"/>
<defs>
<filter id="filter0_d_0_698" x="0" y="-3.6478e-05" width="349.149" height="209.149" filterUnits="userSpaceOnUse" color-interpolation-filters="sRGB">
<feFlood flood-opacity="0" result="BackgroundImageFix"/>
<feColorMatrix in="SourceAlpha" type="matrix" values="0 0 0 0 0 0 0 0 0 0 0 0 0 0 0 0 0 0 127 0" result="hardAlpha"/>
<feOffset dy="2.97872"/>
<feGaussianBlur stdDeviation="29.7872"/>
<feComposite in2="hardAlpha" operator="out"/>
<feColorMatrix type="matrix" values="0 0 0 0 0 0 0 0 0 0 0 0 0 0 0 0 0 0 0.08 0"/>
<feBlend mode="normal" in2="BackgroundImageFix" result="effect1_dropShadow_0_698"/>
<feBlend mode="normal" in="SourceGraphic" in2="effect1_dropShadow_0_698" result="shape"/>
</filter>
</defs>
</svg>
