<svg width="380" height="210" viewBox="0 0 380 210" fill="none" xmlns="http://www.w3.org/2000/svg">
<g filter="url(#filter0_d_0_677)">
<rect x="59.5745" y="56.5957" width="260" height="90" rx="12" fill="white"/>
<rect x="60.0745" y="57.0957" width="259" height="89" rx="11.5" stroke="#F9F9F7"/>
</g>
<path d="M149.915 96.5735V107.389H152.344C152.964 107.379 153.576 107.231 154.144 106.954C154.711 106.676 155.223 106.276 155.648 105.775C156.522 104.749 157 103.384 156.98 101.972C156.999 101.271 156.892 100.573 156.667 99.9176C156.442 99.2622 156.102 98.6627 155.667 98.1536C155.24 97.6522 154.725 97.2533 154.153 96.9813C153.582 96.7093 152.966 96.5701 152.344 96.5721H149.916L149.915 96.5735ZM152.344 93.1823C156.872 93.1823 160.298 97.0768 160.298 101.972C160.298 106.868 156.872 110.785 152.344 110.785H146.986C146.935 110.784 146.885 110.772 146.838 110.75C146.791 110.727 146.748 110.695 146.713 110.654C146.677 110.614 146.649 110.566 146.63 110.513C146.611 110.46 146.602 110.404 146.602 110.347V93.6375C146.602 93.3954 146.775 93.1988 146.986 93.1988L152.344 93.1823ZM171.969 107.766C174.026 107.773 175.883 106.369 176.674 104.209C177.062 103.153 177.166 101.995 176.973 100.876C176.78 99.756 176.298 98.7225 175.587 97.9006C174.888 97.0921 173.984 96.538 172.995 96.3117C172.007 96.0853 170.979 96.1972 170.049 96.6326C168.149 97.5238 166.907 99.6319 166.904 101.972C166.904 105.163 169.167 107.751 171.969 107.766ZM171.97 92.7835C176.736 92.7835 180.38 96.953 180.38 101.972C180.38 106.992 176.736 111.162 171.969 111.162C167.203 111.162 163.591 107.013 163.591 101.972C163.591 96.9324 167.236 92.7835 171.97 92.7835ZM191.957 107.766C194.76 107.758 197.029 105.167 197.026 101.977C197.023 98.7834 194.749 96.1981 191.947 96.1967C189.142 96.1967 186.868 98.7807 186.864 101.972C186.864 103.51 187.4 104.984 188.356 106.071C188.823 106.606 189.383 107.032 190.001 107.323C190.619 107.614 191.285 107.765 191.957 107.766ZM191.956 92.7835C196.707 92.7835 200.35 96.9324 200.35 101.972C200.35 107.013 196.692 111.162 191.956 111.162C187.221 111.162 183.546 107.013 183.546 101.972C183.546 96.9324 187.19 92.7835 191.956 92.7835ZM211.463 96.5735H208.037V101.229H211.463C211.733 101.242 212.004 101.193 212.257 101.086C212.51 100.979 212.741 100.816 212.935 100.606C213.331 100.179 213.556 99.5879 213.561 98.9663C213.571 98.651 213.524 98.3366 213.422 98.0422C213.319 97.7477 213.165 97.4792 212.967 97.2528C212.772 97.03 212.538 96.8548 212.279 96.7385C212.02 96.6223 211.742 96.5674 211.463 96.5776V96.5735ZM204.723 93.6375C204.723 93.3954 204.897 93.1988 205.109 93.1988H211.558C214.633 93.1988 216.858 95.7635 216.858 98.9842C216.882 101.163 215.81 103.163 214.099 104.138L217.074 110.125C217.115 110.193 217.138 110.274 217.14 110.356C217.143 110.439 217.125 110.52 217.088 110.592C217.053 110.663 216.999 110.721 216.935 110.759C216.87 110.797 216.797 110.813 216.724 110.807H214.114C214.042 110.808 213.97 110.786 213.908 110.744C213.847 110.703 213.797 110.642 213.765 110.57L210.898 104.646H208.025V110.334C208.026 110.39 208.016 110.447 207.998 110.5C207.979 110.553 207.951 110.601 207.915 110.642C207.879 110.682 207.837 110.715 207.79 110.737C207.743 110.76 207.692 110.772 207.641 110.772H205.126C205.075 110.772 205.024 110.76 204.977 110.737C204.93 110.715 204.888 110.682 204.852 110.642C204.816 110.601 204.788 110.553 204.769 110.5C204.75 110.447 204.741 110.39 204.742 110.334L204.725 93.6388L204.723 93.6375ZM225.495 96.656V107.473H227.923C228.543 107.464 229.155 107.317 229.723 107.04C230.291 106.764 230.803 106.364 231.229 105.864C232.103 104.839 232.581 103.476 232.563 102.065C232.583 101.363 232.477 100.663 232.253 100.007C232.028 99.3499 231.688 98.7492 231.254 98.2389C230.826 97.7367 230.309 97.3372 229.737 97.0652C229.164 96.7932 228.547 96.6544 227.925 96.6574L225.495 96.656ZM227.923 93.2607C232.451 93.2607 235.877 97.1593 235.877 102.065C235.877 106.97 232.451 110.869 227.923 110.869H222.581C222.53 110.868 222.48 110.856 222.433 110.834C222.386 110.811 222.343 110.779 222.307 110.738C222.272 110.697 222.244 110.649 222.225 110.596C222.206 110.543 222.197 110.487 222.197 110.43V93.7213C222.197 93.4779 222.37 93.2813 222.581 93.2813L227.923 93.2607ZM245.981 97.5623L244.102 103.346H247.857L245.981 97.5623ZM242.999 106.615L241.769 110.466C241.744 110.556 241.693 110.635 241.624 110.69C241.554 110.745 241.47 110.772 241.385 110.768H238.716C238.648 110.775 238.58 110.762 238.518 110.729C238.457 110.697 238.404 110.647 238.366 110.584C238.327 110.52 238.303 110.447 238.297 110.37C238.292 110.294 238.304 110.217 238.332 110.147L244.098 93.4532C244.125 93.3651 244.177 93.2893 244.246 93.2372C244.316 93.185 244.398 93.1595 244.482 93.1644H247.468C247.552 93.1592 247.635 93.1846 247.704 93.2367C247.774 93.2889 247.826 93.3649 247.853 93.4532L253.619 110.147C253.647 110.217 253.659 110.294 253.653 110.37C253.647 110.447 253.623 110.521 253.584 110.584C253.546 110.647 253.493 110.696 253.431 110.729C253.369 110.761 253.301 110.774 253.233 110.767H250.566C250.481 110.771 250.397 110.743 250.327 110.689C250.258 110.634 250.207 110.555 250.182 110.464L248.952 106.614H242.999V106.615ZM256.712 97.9377C256.712 95.1735 258.811 92.7835 262.125 92.7835C263.909 92.7392 265.637 93.4803 266.931 94.8449C266.971 94.8863 267.002 94.9361 267.024 94.9915C267.045 95.0468 267.056 95.1064 267.056 95.1667C267.056 95.2269 267.045 95.2865 267.024 95.3419C267.002 95.3972 266.971 95.4471 266.931 95.4885L265.453 97.1593C265.418 97.1999 265.376 97.2322 265.329 97.2542C265.282 97.2763 265.232 97.2876 265.181 97.2876C265.13 97.2876 265.08 97.2763 265.033 97.2542C264.986 97.2322 264.944 97.1999 264.908 97.1593C264.212 96.435 263.298 96.0247 262.344 96.0083C261.018 96.0083 260.038 96.8843 260.038 97.8951C260.038 101.163 267.872 99.2771 267.872 105.565C267.868 108.751 265.753 111.162 262.014 111.162C260.976 111.173 259.946 110.953 258.986 110.514C258.026 110.075 257.155 109.427 256.426 108.606C256.386 108.565 256.355 108.515 256.334 108.46C256.312 108.404 256.301 108.345 256.301 108.285C256.301 108.224 256.312 108.165 256.334 108.109C256.355 108.054 256.386 108.004 256.426 107.963L257.855 106.335C257.891 106.292 257.934 106.258 257.982 106.235C258.03 106.212 258.082 106.2 258.134 106.2C258.187 106.2 258.238 106.212 258.286 106.235C258.334 106.258 258.377 106.292 258.413 106.335C259.313 107.325 260.524 107.887 261.791 107.902C263.448 107.902 264.539 106.896 264.539 105.635C264.539 102.366 256.71 104.253 256.71 97.9638M282.076 93.6155V100.222H275.446V93.6155C275.447 93.5587 275.437 93.5025 275.418 93.4498C275.399 93.3971 275.371 93.3491 275.336 93.3085C275.3 93.2679 275.257 93.2355 275.21 93.2131C275.164 93.1907 275.113 93.1789 275.062 93.1781H272.547C272.496 93.1789 272.446 93.1907 272.399 93.2131C272.352 93.2355 272.309 93.2679 272.273 93.3085C272.238 93.3491 272.21 93.3971 272.191 93.4498C272.172 93.5025 272.162 93.5587 272.163 93.6155V110.306C272.163 110.548 272.337 110.745 272.547 110.745H275.062C275.273 110.745 275.446 110.548 275.446 110.306V103.595H282.071V110.306C282.071 110.548 282.245 110.745 282.456 110.745H284.97C285.182 110.745 285.354 110.548 285.354 110.306V93.6155C285.355 93.5587 285.346 93.5025 285.327 93.4498C285.308 93.3971 285.28 93.3491 285.244 93.3085C285.208 93.2679 285.166 93.2355 285.119 93.2131C285.072 93.1907 285.021 93.1789 284.97 93.1781H282.456C282.353 93.181 282.256 93.2285 282.185 93.3104C282.114 93.3923 282.075 93.5019 282.076 93.6155ZM132.486 95.406C130.741 91.8167 127.328 89.582 123.617 89.5958H95.5341C95.3445 89.5966 95.1593 89.6594 95.0015 89.7763C94.8438 89.8932 94.7205 90.059 94.6471 90.2531C94.5748 90.446 94.5559 90.6584 94.593 90.8632C94.6301 91.068 94.7214 91.2559 94.8552 91.4028L100.973 98.1412C101.513 98.738 102.249 99.0722 103.014 99.0722H122.811C124.222 99.0557 125.376 100.296 125.391 101.84C125.405 103.385 124.274 104.65 122.863 104.665H109.215C109.025 104.665 108.839 104.727 108.681 104.844C108.523 104.96 108.399 105.126 108.325 105.32C108.252 105.513 108.233 105.726 108.27 105.931C108.307 106.136 108.398 106.325 108.532 106.472L114.653 113.216C115.197 113.813 115.931 114.147 116.695 114.146H122.868C130.9 114.146 136.973 104.739 132.486 95.4018" fill="#FF3008"/>
<defs>
<filter id="filter0_d_0_677" x="0" y="-3.6478e-05" width="379.149" height="209.149" filterUnits="userSpaceOnUse" color-interpolation-filters="sRGB">
<feFlood flood-opacity="0" result="BackgroundImageFix"/>
<feColorMatrix in="SourceAlpha" type="matrix" values="0 0 0 0 0 0 0 0 0 0 0 0 0 0 0 0 0 0 127 0" result="hardAlpha"/>
<feOffset dy="2.97872"/>
<feGaussianBlur stdDeviation="29.7872"/>
<feComposite in2="hardAlpha" operator="out"/>
<feColorMatrix type="matrix" values="0 0 0 0 0 0 0 0 0 0 0 0 0 0 0 0 0 0 0.08 0"/>
<feBlend mode="normal" in2="BackgroundImageFix" result="effect1_dropShadow_0_677"/>
<feBlend mode="normal" in="SourceGraphic" in2="effect1_dropShadow_0_677" result="shape"/>
</filter>
</defs>
</svg>
