<svg width="350" height="210" viewBox="0 0 350 210" fill="none" xmlns="http://www.w3.org/2000/svg">
<g filter="url(#filter0_d_0_691)">
<rect x="59.5745" y="56.5957" width="230" height="90" rx="12" fill="white"/>
<rect x="60.0745" y="57.0957" width="229" height="89" rx="11.5" stroke="#F9F9F7"/>
</g>
<path d="M117.621 98.6701C119.404 100.461 120.861 103.394 120.027 105.136C117.796 109.796 101.15 117.969 99.7364 116.554C98.3228 115.14 106.5 98.4879 111.161 96.2556C112.903 95.4214 115.836 96.8792 117.628 98.6616C117.627 98.663 117.626 98.6658 117.621 98.6701Z" fill="#FF8200"/>
<path d="M126.439 96.7007C126.15 95.6287 125.411 94.5453 124.308 94.4172C122.285 94.1823 119.097 97.7584 119.325 98.6069C119.553 99.4554 124.057 100.952 125.738 99.743C126.605 99.1194 126.728 97.7727 126.443 96.7007H126.439ZM120.179 86.7938C121.681 87.2009 123.2 88.2359 123.379 89.7819C123.71 92.6178 118.696 97.0879 117.506 96.769C116.316 96.4501 114.219 90.135 115.914 87.7761C116.788 86.5603 118.676 86.3895 120.181 86.7881C120.179 86.7881 120.179 86.7909 120.179 86.7938Z" fill="#43B02A"/>
<path d="M164.948 103.576L163.459 103.35C162.039 103.14 161.218 102.681 161.218 101.845C161.218 100.885 162.287 100.29 163.867 100.29C164.985 100.29 165.894 100.709 166.766 101.153L166.939 101.241C167.14 101.344 167.356 101.395 167.58 101.395C168.097 101.395 168.574 101.115 168.823 100.662L168.944 100.443C169.136 100.092 169.177 99.6895 169.059 99.308C168.941 98.9279 168.68 98.6204 168.324 98.4424C167.056 97.8075 165.679 97.2366 163.866 97.2366C160.076 97.2366 157.636 99.066 157.636 102.011C157.636 104.429 159.373 105.945 162.661 106.393L164.163 106.588C165.751 106.81 166.522 107.28 166.522 108.025C166.522 108.712 166.151 109.625 163.692 109.625C162.337 109.625 160.96 109.28 159.843 108.573C159.619 108.432 159.363 108.356 159.099 108.356C158.608 108.356 158.143 108.617 157.884 109.036L157.8 109.171C157.592 109.507 157.529 109.92 157.627 110.303C157.726 110.685 157.968 111.002 158.309 111.192C160.257 112.287 162.506 112.676 163.691 112.676C167.641 112.676 170.085 110.945 170.085 107.898C170.09 105.464 168.359 104.066 164.948 103.576ZM210.878 108.897C210.593 108.579 210.183 108.396 209.756 108.396C209.467 108.396 209.185 108.479 208.939 108.634C208.134 109.144 207.255 109.414 206.39 109.414C204.017 109.414 202.295 107.539 202.295 104.957C202.295 102.374 204.017 100.5 206.39 100.5C207.302 100.5 208.117 100.747 208.883 101.257C209.477 101.651 210.328 101.55 210.816 101.029L210.943 100.894C211.278 100.538 211.436 100.054 211.379 99.5685C211.323 99.0916 211.063 98.6659 210.666 98.4026C209.498 97.6281 208.052 97.2195 206.482 97.2195C201.926 97.2195 198.744 100.401 198.744 104.955C198.744 109.511 201.926 112.693 206.482 112.693C208.059 112.693 209.514 112.276 210.69 111.486C211.083 111.222 211.342 110.801 211.4 110.328C211.46 109.853 211.31 109.376 210.992 109.02L210.878 108.897ZM137.157 91.9863C135.971 91.9863 135.043 92.9273 135.043 94.1274C135.043 95.3332 135.951 96.2415 137.157 96.2415C138.357 96.2415 139.298 95.3133 139.298 94.1274C139.298 92.9273 138.357 91.9863 137.157 91.9863ZM137.796 97.3462H136.549C135.939 97.3462 135.443 97.8416 135.443 98.4524V111.211C135.443 111.822 135.939 112.317 136.549 112.317H137.796C138.407 112.317 138.903 111.822 138.903 111.211V98.4524C138.903 97.8416 138.407 97.3462 137.796 97.3462ZM178.744 109.347C177.344 109.342 175.717 108.245 175.717 106.325V100.569H178.754C179.365 100.569 179.86 100.074 179.86 99.4631V98.4524C179.86 97.8416 179.365 97.3462 178.754 97.3462H175.717V94.0249C175.717 93.4142 175.222 92.9188 174.611 92.9188H173.296C172.685 92.9188 172.19 93.4142 172.19 94.0249V106.119C172.19 109.601 174.832 112.679 178.49 112.679H178.492C178.856 112.679 179.201 112.536 179.461 112.276C179.72 112.017 179.864 111.672 179.864 111.306V110.453C179.861 109.84 179.359 109.35 178.744 109.347ZM148.521 97.221C144.093 97.221 141.623 100.763 141.623 103.792V111.211C141.623 111.822 142.119 112.317 142.729 112.317H143.991C144.601 112.317 145.097 111.822 145.097 111.211V104.349C145.097 102.051 146.489 100.529 148.519 100.529C150.549 100.529 151.942 102.051 151.942 104.349V111.211C151.942 111.822 152.437 112.317 153.048 112.317H154.309C154.92 112.317 155.415 111.822 155.415 111.211V103.792C155.418 100.761 152.949 97.221 148.521 97.221ZM239.599 97.3747C239.119 97.2694 237.916 97.221 237.293 97.221C237.237 97.221 237.182 97.2224 237.128 97.2224C233.7 97.2224 230.534 100.017 230.534 103.869C230.534 103.872 230.532 103.876 230.532 103.879V111.211C230.532 111.822 231.028 112.317 231.638 112.317H232.9C233.51 112.317 234.006 111.822 234.006 111.211V103.996C234.006 101.899 235.503 100.531 237.338 100.531C237.674 100.537 238.035 100.574 238.388 100.643C238.484 100.662 238.581 100.672 238.679 100.672C239.38 100.672 239.986 100.188 240.15 99.5073C240.24 99.1329 240.307 98.8553 240.369 98.6004C240.432 98.3456 240.389 98.058 240.244 97.8246C240.097 97.5939 239.868 97.4331 239.599 97.3747ZM248.851 100.569C249.462 100.569 249.957 100.074 249.957 99.4631V98.4524C249.957 97.8416 249.462 97.3462 248.851 97.3462H245.815V94.0249C245.815 93.4142 245.319 92.9188 244.707 92.9188H243.392C242.781 92.9188 242.285 93.4142 242.285 94.0249V106.119C242.285 109.601 244.928 112.679 248.586 112.679H248.588C248.954 112.679 249.297 112.536 249.557 112.276C249.816 112.017 249.96 111.672 249.96 111.306V110.453C249.96 109.838 249.458 109.349 248.843 109.347C247.443 109.342 245.816 108.245 245.816 106.325V100.569H248.851ZM224.775 98.4082C224.774 98.4068 224.771 98.4054 224.769 98.404C223.602 97.6295 222.156 97.221 220.585 97.221C220.558 97.221 220.531 97.2224 220.504 97.2224C220.477 97.2224 220.45 97.221 220.423 97.221C218.853 97.221 217.405 97.6295 216.239 98.404C216.238 98.4054 216.235 98.4068 216.233 98.4082C214.132 99.7308 212.849 102.067 212.849 104.958C212.849 107.986 214.257 110.406 216.538 111.689C217.601 112.317 218.864 112.691 220.225 112.693C222.711 112.694 224.213 111.286 224.684 110.671V111.201C224.684 111.812 225.179 112.307 225.79 112.307H227.051C227.662 112.307 228.158 111.812 228.158 111.201V104.957C228.159 102.066 226.876 99.7294 224.775 98.4082ZM221.894 109.182C221.489 109.316 221.078 109.393 220.669 109.41C220.639 109.411 220.61 109.411 220.58 109.413C220.554 109.413 220.53 109.414 220.504 109.414C220.479 109.414 220.454 109.413 220.429 109.413C220.399 109.413 220.369 109.411 220.339 109.41C219.93 109.393 219.518 109.316 219.115 109.182C217.483 108.606 216.4 107.005 216.4 104.957C216.4 102.54 217.91 100.742 220.05 100.522C220.061 100.521 220.073 100.521 220.084 100.519C220.133 100.515 220.181 100.511 220.231 100.508C220.258 100.507 220.286 100.505 220.313 100.504C220.36 100.502 220.409 100.501 220.456 100.501C220.473 100.501 220.489 100.5 220.506 100.5C220.523 100.5 220.538 100.5 220.555 100.501C220.604 100.501 220.651 100.502 220.698 100.504C220.726 100.505 220.753 100.507 220.78 100.508C220.829 100.511 220.879 100.514 220.927 100.519C220.938 100.521 220.95 100.521 220.961 100.522C223.101 100.742 224.611 102.538 224.611 104.957C224.608 107.004 223.525 108.606 221.894 109.182ZM193.286 98.4082C193.285 98.4068 193.282 98.4054 193.28 98.404C192.113 97.6295 190.667 97.221 189.096 97.221C189.069 97.221 189.042 97.2224 189.015 97.2224C188.988 97.2224 188.961 97.221 188.934 97.221C187.364 97.221 185.916 97.6295 184.75 98.404C184.749 98.4054 184.746 98.4068 184.744 98.4082C182.643 99.7308 181.36 102.067 181.36 104.958C181.36 107.986 182.768 110.406 185.049 111.689C186.113 112.317 187.375 112.691 188.736 112.693C191.222 112.694 192.724 111.286 193.195 110.671V111.201C193.195 111.812 193.69 112.307 194.301 112.307H195.562C196.173 112.307 196.669 111.812 196.669 111.201V104.957C196.67 102.066 195.387 99.7294 193.286 98.4082ZM190.405 109.182C190 109.316 189.589 109.393 189.18 109.41C189.151 109.411 189.121 109.411 189.091 109.413C189.065 109.413 189.041 109.414 189.015 109.414C188.99 109.414 188.965 109.413 188.94 109.413C188.91 109.413 188.88 109.411 188.85 109.41C188.442 109.393 188.029 109.316 187.626 109.182C185.994 108.606 184.911 107.005 184.911 104.957C184.911 102.54 186.421 100.742 188.561 100.522C188.573 100.521 188.584 100.521 188.595 100.519C188.644 100.515 188.692 100.511 188.742 100.508C188.769 100.507 188.797 100.505 188.824 100.504C188.871 100.502 188.92 100.501 188.967 100.501C188.984 100.501 189 100.5 189.017 100.5C189.034 100.5 189.049 100.5 189.067 100.501C189.115 100.501 189.162 100.502 189.209 100.504C189.237 100.505 189.264 100.507 189.291 100.508C189.34 100.511 189.39 100.514 189.438 100.519C189.449 100.521 189.461 100.521 189.472 100.522C191.612 100.742 193.122 102.538 193.122 104.957C193.12 107.004 192.036 108.606 190.405 109.182Z" fill="#43B02A"/>
<defs>
<filter id="filter0_d_0_691" x="0" y="-3.6478e-05" width="349.149" height="209.149" filterUnits="userSpaceOnUse" color-interpolation-filters="sRGB">
<feFlood flood-opacity="0" result="BackgroundImageFix"/>
<feColorMatrix in="SourceAlpha" type="matrix" values="0 0 0 0 0 0 0 0 0 0 0 0 0 0 0 0 0 0 127 0" result="hardAlpha"/>
<feOffset dy="2.97872"/>
<feGaussianBlur stdDeviation="29.7872"/>
<feComposite in2="hardAlpha" operator="out"/>
<feColorMatrix type="matrix" values="0 0 0 0 0 0 0 0 0 0 0 0 0 0 0 0 0 0 0.08 0"/>
<feBlend mode="normal" in2="BackgroundImageFix" result="effect1_dropShadow_0_691"/>
<feBlend mode="normal" in="SourceGraphic" in2="effect1_dropShadow_0_691" result="shape"/>
</filter>
</defs>
</svg>
