<svg width="341" height="210" viewBox="0 0 341 210" fill="none" xmlns="http://www.w3.org/2000/svg">
<g filter="url(#filter0_d_0_670)">
<rect x="59.5745" y="56.5957" width="220.909" height="90" rx="12" fill="white"/>
<rect x="60.0745" y="57.0957" width="219.909" height="89" rx="11.5" stroke="#F9F9F7"/>
</g>
<path d="M209.878 89.6667H205.778C205.546 89.6667 205.431 89.7823 205.431 90.0133V106.242C205.431 107.051 205.171 107.657 204.824 108.119C204.478 108.581 204.016 108.697 203.438 108.697C202.861 108.697 202.37 108.465 202.023 108.119C201.677 107.657 201.446 107.051 201.446 106.242V90.0133C201.446 89.7823 201.215 89.6667 201.099 89.6667H196.97C196.739 89.6667 196.623 89.7823 196.623 90.0133V106.358C196.623 108.466 197.085 110.458 198.385 111.757C199.655 113.057 201.417 113.75 203.438 113.75C205.546 113.75 207.308 113.057 208.492 111.757C209.762 110.487 210.253 108.61 210.253 106.358V90.0133C210.369 89.898 210.138 89.6667 209.878 89.6667ZM225.616 101.189C226.309 100.496 227.608 98.8497 227.608 96.7128C227.608 94.2296 226.656 92.7279 225.934 91.8903C224.634 90.5043 222.901 89.7823 220.88 89.7823H214.412C214.152 89.7823 214.036 90.0133 214.036 90.1287V113.057C214.036 113.288 214.267 113.404 214.412 113.404H221.255C223.363 113.404 225.356 112.595 226.656 110.92C227.348 109.996 228.186 108.437 228.186 106.098C227.955 103.297 226.222 101.651 225.616 101.189ZM218.801 94.4892H220.909C221.487 94.4892 221.948 94.6045 222.295 95.0667C222.67 95.4421 222.786 96.0197 222.786 96.7416C222.786 97.4634 222.67 98.012 222.295 98.5032C221.948 98.8496 221.487 99.0806 221.024 99.0806H218.917V94.4892H218.801ZM222.555 108.004C222.208 108.466 221.746 108.581 221.024 108.581H218.685V103.614H221.024C221.602 103.614 222.064 103.874 222.41 104.221C222.786 104.683 223.017 105.26 223.017 105.982C223.132 106.935 222.93 107.513 222.555 108.004ZM138.927 103.181C139.389 102.835 139.765 102.604 140.111 102.113C140.92 101.189 141.988 99.5425 141.988 96.9437C141.988 94.4602 141.035 92.8432 140.111 91.8903C138.927 90.5043 137.166 89.7823 135.173 89.6667H128.358C128.127 89.6667 128.012 89.898 128.012 90.0133V112.913C128.012 113.144 128.243 113.259 128.358 113.259H132.459C132.69 113.259 132.806 113.028 132.806 112.913V104.452H134.221L136.791 113.144C136.791 113.259 137.05 113.375 137.166 113.375H141.497C141.613 113.375 141.729 113.259 141.844 113.259C141.959 113.259 141.959 113.028 141.959 112.913L138.927 103.181ZM136.328 98.936C135.982 99.3984 135.404 99.658 134.682 99.658H132.69V94.4892H134.682C135.375 94.4892 135.953 94.7202 136.328 95.1822C136.79 95.6733 136.935 96.2507 136.935 97.0593C136.935 97.8967 136.819 98.4741 136.328 98.936ZM173.666 101.189C174.388 100.496 175.659 98.8497 175.659 96.7128C175.659 94.2296 174.735 92.7279 174.013 91.8903C172.714 90.5043 170.952 89.7823 168.959 89.7823H162.52C162.289 89.7823 162.173 90.0133 162.173 90.1287V113.057C162.173 113.288 162.404 113.404 162.52 113.404H169.335C171.443 113.404 173.435 112.595 174.764 110.92C175.457 109.996 176.294 108.437 176.294 106.098C176.15 103.297 174.388 101.651 173.666 101.189ZM166.88 94.4892H168.988C169.566 94.4892 170.028 94.6045 170.374 95.0667C170.721 95.4421 170.837 96.0197 170.837 96.7416C170.837 97.4634 170.721 98.012 170.374 98.5032C170.028 98.8496 169.566 99.0806 169.104 99.0806H166.996V94.4892H166.88ZM170.75 108.004C170.403 108.466 169.941 108.581 169.219 108.581H166.88V103.614H169.219C169.797 103.614 170.259 103.874 170.605 104.221C170.952 104.683 171.212 105.26 171.212 105.982C171.241 106.935 171.125 107.513 170.75 108.004ZM117.876 89.3203C115.768 89.3203 114.007 90.0133 112.823 91.3127C111.552 92.6122 111.09 94.4602 111.09 96.7127V106.473C111.09 108.581 111.552 110.573 112.823 111.873C114.122 113.173 115.884 113.866 117.876 113.866C119.984 113.866 121.774 113.173 122.958 111.873C124.229 110.602 124.691 108.725 124.691 106.473V101.102C124.691 100.842 124.46 100.611 124.229 100.611H118.252C117.992 100.611 117.761 100.842 117.761 101.102V105.087C117.761 105.318 117.992 105.549 118.252 105.549H119.782V106.502C119.782 107.311 119.551 108.033 119.205 108.495C118.858 108.957 118.367 109.072 117.79 109.072C117.212 109.072 116.75 108.841 116.375 108.495C116.028 108.033 115.797 107.311 115.797 106.502V96.8573C115.797 96.0197 116.028 95.2978 116.375 94.8644C116.75 94.4024 117.212 94.287 117.79 94.287C118.367 94.287 118.858 94.5181 119.205 94.8644C119.551 95.3265 119.782 96.0197 119.782 96.8573V97.7813C119.782 98.0121 120.013 98.1565 120.129 98.1565H124.229C124.46 98.1565 124.576 98.0121 124.576 97.7813V96.8573C124.576 94.749 124.114 92.7566 122.814 91.4572C121.775 90.0133 119.869 89.3203 117.876 89.3203ZM158.073 89.6667H153.972C153.741 89.6667 153.626 89.7823 153.626 90.0133V106.242C153.626 107.051 153.366 107.657 153.019 108.119C152.673 108.581 152.211 108.697 151.633 108.697C151.056 108.697 150.565 108.465 150.218 108.119C149.872 107.657 149.641 107.051 149.641 106.242V90.0133C149.641 89.7823 149.381 89.6667 149.265 89.6667H145.165C144.934 89.6667 144.818 89.7823 144.818 90.0133V106.358C144.818 108.466 145.309 110.458 146.58 111.757C147.879 113.057 149.641 113.75 151.633 113.75C153.741 113.75 155.532 113.057 156.687 111.757C157.986 110.487 158.448 108.61 158.448 106.358V90.0133C158.419 89.898 158.304 89.6667 158.073 89.6667ZM192.609 89.6667H188.509C188.278 89.6667 188.163 89.898 188.163 90.0133V98.936H184.062V90.0133C184.062 89.7823 183.831 89.6667 183.715 89.6667H179.615C179.384 89.6667 179.269 89.898 179.269 90.0133V112.913C179.269 113.144 179.5 113.259 179.615 113.259H183.715C183.946 113.259 184.062 113.028 184.062 112.913V103.759H188.163V112.913C188.163 113.144 188.394 113.259 188.509 113.259H192.609C192.841 113.259 192.956 113.028 192.956 112.913V90.0133C192.956 89.898 192.841 89.6667 192.609 89.6667Z" fill="#F63440"/>
<defs>
<filter id="filter0_d_0_670" x="0" y="-3.6478e-05" width="340.058" height="209.149" filterUnits="userSpaceOnUse" color-interpolation-filters="sRGB">
<feFlood flood-opacity="0" result="BackgroundImageFix"/>
<feColorMatrix in="SourceAlpha" type="matrix" values="0 0 0 0 0 0 0 0 0 0 0 0 0 0 0 0 0 0 127 0" result="hardAlpha"/>
<feOffset dy="2.97872"/>
<feGaussianBlur stdDeviation="29.7872"/>
<feComposite in2="hardAlpha" operator="out"/>
<feColorMatrix type="matrix" values="0 0 0 0 0 0 0 0 0 0 0 0 0 0 0 0 0 0 0.08 0"/>
<feBlend mode="normal" in2="BackgroundImageFix" result="effect1_dropShadow_0_670"/>
<feBlend mode="normal" in="SourceGraphic" in2="effect1_dropShadow_0_670" result="shape"/>
</filter>
</defs>
</svg>
