<svg width="341" height="210" viewBox="0 0 341 210" fill="none" xmlns="http://www.w3.org/2000/svg">
<g filter="url(#filter0_d_0_673)">
<rect x="59.5745" y="56.5957" width="220.909" height="90" rx="12" fill="white"/>
<rect x="60.0745" y="57.0957" width="219.909" height="89" rx="11.5" stroke="#F9F9F7"/>
</g>
<path d="M93.9182 113.48V89.3203H103.97C108.294 89.3203 111.106 92.4712 111.106 96.6619C111.106 100.853 108.294 104.011 103.97 104.011H97.7623V113.464L93.9182 113.48ZM97.7623 92.5815V100.782H103.796C105.718 100.782 107.262 98.8281 107.262 96.6619C107.262 94.4956 105.687 92.5815 103.796 92.5815H97.7623ZM130.5 108.407C131.737 108.163 132.942 107.926 134.139 107.722C134.384 109.092 135.203 110.739 137.983 110.739C138.606 110.739 141.654 110.502 141.654 108.304C141.654 104.153 131.02 108.438 131.02 100.994C131.02 98.0404 133.966 95.8111 137.676 95.8111C141.386 95.8111 144.537 97.3866 145.057 101.231C143.82 101.443 142.615 101.68 141.418 101.924C141.174 99.7576 139.842 98.9699 137.779 98.9699C135.959 98.9699 134.722 99.9309 134.722 100.994C134.722 102.404 136.03 102.775 138.086 102.987C142.024 103.397 145.325 104.256 145.325 108.304C145.325 111.944 142.174 113.866 137.983 113.866C133.525 113.866 130.981 111.503 130.5 108.407ZM146.294 98.9542V96.1184H149.279V91.0769H152.99V96.0868H156.589V98.9542H152.99V108.801C152.99 110.171 153.399 110.589 154.565 110.589C155.077 110.589 156.211 110.518 156.211 110.518V113.503C156.211 113.503 154.88 113.637 153.565 113.637C150.303 113.637 149.24 111.889 149.24 108.564V98.9542H146.294ZM169.5 103.807C169.5 101.16 168.917 98.9305 166.137 98.9305C163.49 98.9305 162.773 101.16 162.773 103.807V113.48H159.063V96.1499H162.427L162.773 98.0325C163.285 97.0715 165.349 95.8033 167.373 95.8033C168.342 95.7464 169.308 95.9602 170.162 96.4207C171.016 96.8812 171.725 97.5702 172.21 98.4106C173.14 96.8352 175.361 95.8033 177.425 95.8033C182.151 95.8033 183.601 98.6863 183.601 103.838V113.511H179.945V103.807C179.945 101.191 179.229 98.899 176.582 98.899C173.801 98.899 173.218 101.128 173.218 103.807V113.48H169.516L169.5 103.807ZM190.328 102.105C189.13 101.9 187.894 101.625 186.657 101.42C187.035 97.5757 190.194 95.7875 193.833 95.7875C198.741 95.7875 201.277 98.1507 201.277 102.924V108.966C201.277 109.998 201.482 110.581 202.207 110.581C202.509 110.577 202.808 110.529 203.097 110.439V113.464C202.381 113.658 201.641 113.751 200.899 113.74C200.176 113.786 199.463 113.557 198.903 113.097C198.343 112.638 197.978 111.984 197.882 111.266C197.216 112.059 196.388 112.7 195.453 113.144C194.517 113.589 193.498 113.827 192.462 113.842C188.445 113.842 186.042 111.605 186.042 108.328C186.042 105.618 188.547 103.145 193.132 103.145H197.598V102.105C197.598 100.766 197.047 98.9542 193.857 98.9542C191.73 98.9542 190.422 100.018 190.351 102.105M197.598 106.768V105.91H193.51C190.462 105.91 189.839 107.485 189.839 108.312C189.839 109.478 190.627 110.675 192.896 110.675C195.913 110.675 197.622 108.62 197.622 106.737M120.134 113.858C118.347 113.858 116.6 113.328 115.114 112.335C113.628 111.342 112.47 109.931 111.786 108.28C111.102 106.629 110.923 104.813 111.272 103.06C111.621 101.307 112.481 99.6975 113.745 98.4339C115.008 97.1703 116.618 96.3097 118.371 95.9611C120.124 95.6125 121.94 95.7914 123.591 96.4753C125.242 97.1591 126.653 98.3172 127.646 99.803C128.639 101.289 129.169 103.036 129.169 104.823C129.167 107.218 128.214 109.515 126.52 111.209C124.826 112.903 122.529 113.856 120.134 113.858ZM120.134 99.2377C119.027 99.2377 117.946 99.566 117.026 100.181C116.106 100.796 115.389 101.67 114.966 102.692C114.543 103.715 114.432 104.839 114.649 105.925C114.865 107.01 115.399 108.006 116.182 108.788C116.965 109.57 117.962 110.102 119.047 110.317C120.133 110.532 121.258 110.42 122.279 109.995C123.301 109.571 124.174 108.853 124.788 107.932C125.401 107.011 125.728 105.929 125.726 104.823C125.724 103.341 125.134 101.92 124.086 100.873C123.037 99.8259 121.616 99.2377 120.134 99.2377ZM226.161 107.446C227.296 107.753 228.422 108.092 229.556 108.438C228.769 110.943 226.405 113.826 221.679 113.826C216.953 113.826 213.51 110.156 213.51 104.799C213.51 99.4425 216.661 95.7718 221.506 95.7718C226.35 95.7718 229.336 99.0014 229.336 104.248C229.346 104.8 229.322 105.352 229.265 105.902H217.339C217.41 108.438 219.158 110.699 221.663 110.699C222.667 110.727 223.651 110.424 224.464 109.836C225.277 109.247 225.874 108.407 226.161 107.446ZM225.373 103.121C225.271 100.545 224.034 98.899 221.49 98.899C218.946 98.899 217.614 100.955 217.512 103.121H225.373ZM230.927 108.407C232.164 108.171 233.369 107.926 234.566 107.722C234.81 109.092 235.63 110.739 238.41 110.739C239.025 110.739 242.081 110.502 242.081 108.304C242.081 104.153 231.447 108.446 231.447 100.994C231.447 98.0483 234.393 95.8111 238.103 95.8111C241.813 95.8111 244.964 97.3866 245.476 101.239C244.247 101.443 243.042 101.68 241.845 101.924C241.601 99.7576 240.269 98.9699 238.206 98.9699C236.386 98.9699 235.149 99.9309 235.149 100.994C235.149 102.404 236.457 102.782 238.513 102.987C242.451 103.397 245.752 104.256 245.752 108.304C245.752 111.944 242.601 113.866 238.41 113.866C233.952 113.866 231.407 111.503 230.927 108.407ZM202.545 98.9542V96.1184H205.531V91.0769H209.241V96.0868H212.841V98.9542H209.241V108.801C209.241 110.171 209.651 110.589 210.856 110.589C211.368 110.589 212.502 110.518 212.502 110.518V113.503C212.502 113.503 211.179 113.637 209.855 113.637C206.602 113.637 205.531 111.889 205.531 108.564V98.9542H202.545Z" fill="black"/>
<defs>
<filter id="filter0_d_0_673" x="0" y="-3.6478e-05" width="340.058" height="209.149" filterUnits="userSpaceOnUse" color-interpolation-filters="sRGB">
<feFlood flood-opacity="0" result="BackgroundImageFix"/>
<feColorMatrix in="SourceAlpha" type="matrix" values="0 0 0 0 0 0 0 0 0 0 0 0 0 0 0 0 0 0 127 0" result="hardAlpha"/>
<feOffset dy="2.97872"/>
<feGaussianBlur stdDeviation="29.7872"/>
<feComposite in2="hardAlpha" operator="out"/>
<feColorMatrix type="matrix" values="0 0 0 0 0 0 0 0 0 0 0 0 0 0 0 0 0 0 0.08 0"/>
<feBlend mode="normal" in2="BackgroundImageFix" result="effect1_dropShadow_0_673"/>
<feBlend mode="normal" in="SourceGraphic" in2="effect1_dropShadow_0_673" result="shape"/>
</filter>
</defs>
</svg>
