<svg width="341" height="210" viewBox="0 0 341 210" fill="none" xmlns="http://www.w3.org/2000/svg">
<g filter="url(#filter0_d_0_665)">
<rect x="59.5745" y="56.5957" width="220.909" height="90" rx="12" fill="white"/>
<rect x="60.0745" y="57.0957" width="219.909" height="89" rx="11.5" stroke="#F9F9F7"/>
</g>
<path d="M174.246 89.3242H191.148V93.4596H178.812V99.3318H190.804V103.327H178.812V109.298H191.148V113.433H174.246V89.3242ZM237.823 113.868C243.005 113.868 245.925 111.386 245.925 107.979C245.925 105.551 244.196 103.74 240.578 102.954L236.752 102.173C234.532 101.759 233.833 101.346 233.833 100.519C233.833 99.4476 234.904 98.7901 236.876 98.7901C239.014 98.7901 240.598 99.3649 241.012 101.342H245.495C245.251 97.6198 242.575 95.1633 237.149 95.1633C232.46 95.1633 229.168 97.0987 229.168 100.849C229.168 103.442 230.979 105.13 234.887 105.953L239.163 106.941C240.851 107.272 241.301 107.727 241.301 108.425C241.301 109.538 240.028 110.237 237.968 110.237C235.379 110.237 233.899 109.662 233.324 107.685H228.817C229.474 111.399 232.228 113.868 237.823 113.868ZM227.514 113.417H222.663C219.62 113.417 217.932 111.523 217.932 109.133V99.6626H214.521V95.6265H217.949V90.5607H222.456V95.6265H227.514V99.6626H222.456V107.979C222.456 108.926 223.114 109.381 224.144 109.381H227.514V113.417ZM208.078 95.6348V97.2393C206.491 95.8977 204.478 95.1648 202.4 95.1716C201.156 95.1455 199.919 95.3679 198.762 95.8259C197.605 96.2839 196.551 96.9683 195.662 97.839C194.773 98.7096 194.066 99.749 193.584 100.896C193.102 102.043 192.853 103.275 192.853 104.52C192.853 105.764 193.102 106.996 193.584 108.143C194.066 109.29 194.773 110.33 195.662 111.2C196.551 112.071 197.605 112.755 198.762 113.213C199.919 113.671 201.156 113.894 202.4 113.868C204.478 113.877 206.492 113.143 208.078 111.8V113.409H212.573V95.6265L208.078 95.6348ZM202.772 109.964C201.694 109.976 200.636 109.668 199.734 109.077C198.831 108.487 198.125 107.642 197.704 106.649C197.283 105.656 197.166 104.561 197.369 103.502C197.572 102.443 198.086 101.468 198.844 100.702C199.603 99.935 200.572 99.4112 201.629 99.1968C202.685 98.9823 203.782 99.0869 204.779 99.4973C205.777 99.9076 206.629 100.605 207.229 101.501C207.829 102.397 208.149 103.452 208.148 104.53C208.155 105.241 208.02 105.946 207.752 106.604C207.485 107.263 207.089 107.862 206.588 108.366C206.087 108.871 205.492 109.271 204.835 109.544C204.179 109.817 203.475 109.957 202.764 109.956L202.772 109.964Z" fill="#05C167"/>
<path d="M164.189 98.9637C161.927 98.9637 160.323 100.734 160.323 103.451V113.417H156.87V95.8746H160.281V98.0168C160.702 97.3068 161.305 96.7223 162.028 96.3238C162.751 95.9253 163.567 95.7274 164.392 95.7506H165.632V98.9637H164.189ZM154.483 104.646C154.483 99.4145 150.762 95.5024 145.725 95.5024C144.535 95.5105 143.358 95.7538 142.262 96.2184C141.166 96.6829 140.173 97.3596 139.34 98.2093C138.507 99.0591 137.85 100.065 137.407 101.17C136.964 102.274 136.744 103.456 136.759 104.646C136.759 109.873 140.791 113.826 146.051 113.826C147.521 113.854 148.975 113.528 150.292 112.876C151.609 112.224 152.75 111.265 153.619 110.08L151.113 108.244C150.538 109.046 149.777 109.697 148.896 110.142C148.014 110.586 147.038 110.81 146.051 110.795C144.646 110.788 143.289 110.278 142.227 109.357C141.165 108.436 140.467 107.165 140.262 105.775H154.492L154.483 104.646ZM140.336 103.037C140.952 100.362 143.09 98.5502 145.683 98.5502C148.276 98.5502 150.41 100.362 150.989 103.037H140.336ZM125.821 95.5024C124.667 95.5034 123.525 95.7331 122.46 96.1781C121.395 96.6231 120.43 97.2748 119.618 98.0953V89.3242H116.165V113.417H119.577V111.192C121.23 112.864 123.478 113.811 125.829 113.826C127.049 113.852 128.261 113.634 129.396 113.186C130.53 112.737 131.563 112.066 132.435 111.213C133.306 110.359 133.999 109.341 134.472 108.216C134.945 107.092 135.188 105.884 135.188 104.664C135.188 103.445 134.945 102.237 134.472 101.113C133.999 99.9881 133.306 98.9693 132.435 98.116C131.563 97.2627 130.53 96.5919 129.396 96.1432C128.261 95.6944 127.049 95.4765 125.829 95.5024H125.821ZM125.573 110.741C124.369 110.747 123.191 110.395 122.188 109.73C121.185 109.065 120.402 108.117 119.938 107.006C119.474 105.896 119.351 104.672 119.584 103.491C119.817 102.311 120.395 101.226 121.246 100.374C122.096 99.5222 123.18 98.9424 124.361 98.708C125.542 98.4735 126.765 98.5951 127.876 99.0572C128.988 99.5193 129.937 100.301 130.603 101.303C131.27 102.306 131.623 103.483 131.619 104.687C131.62 105.481 131.464 106.267 131.161 107.001C130.857 107.734 130.412 108.401 129.85 108.962C129.288 109.523 128.621 109.967 127.887 110.27C127.153 110.572 126.367 110.727 125.573 110.725V110.741ZM103.449 110.576C106.782 110.576 109.371 108.02 109.371 104.191V89.3242H112.948V113.417H109.412V111.138C108.586 111.992 107.595 112.669 106.5 113.129C105.405 113.589 104.227 113.822 103.039 113.814C97.8992 113.814 93.9417 110.067 93.9417 104.385V89.3242H97.5849V104.212C97.5849 108.062 100.066 110.576 103.449 110.576Z" fill="black"/>
<defs>
<filter id="filter0_d_0_665" x="0" y="-3.6478e-05" width="340.058" height="209.149" filterUnits="userSpaceOnUse" color-interpolation-filters="sRGB">
<feFlood flood-opacity="0" result="BackgroundImageFix"/>
<feColorMatrix in="SourceAlpha" type="matrix" values="0 0 0 0 0 0 0 0 0 0 0 0 0 0 0 0 0 0 127 0" result="hardAlpha"/>
<feOffset dy="2.97872"/>
<feGaussianBlur stdDeviation="29.7872"/>
<feComposite in2="hardAlpha" operator="out"/>
<feColorMatrix type="matrix" values="0 0 0 0 0 0 0 0 0 0 0 0 0 0 0 0 0 0 0.08 0"/>
<feBlend mode="normal" in2="BackgroundImageFix" result="effect1_dropShadow_0_665"/>
<feBlend mode="normal" in="SourceGraphic" in2="effect1_dropShadow_0_665" result="shape"/>
</filter>
</defs>
</svg>
