<svg width="350" height="210" viewBox="0 0 350 210" fill="none" xmlns="http://www.w3.org/2000/svg">
<g filter="url(#filter0_d_0_703)">
<rect x="59.5745" y="56.5957" width="230" height="90" rx="12" fill="white"/>
<rect x="60.0745" y="57.0957" width="229" height="89" rx="11.5" stroke="#F9F9F7"/>
</g>
<path d="M203.622 92.8186V111.325H202.059V92.8186H203.622ZM212.24 101.334V102.682H203.101V101.334H212.24ZM213.523 92.8186V94.1659H203.101V92.8186H213.523Z" fill="#2C2F24"/>
<path d="M214.28 104.665V104.245C214.28 103.245 214.424 102.322 214.712 101.474C215 100.627 215.411 99.8939 215.945 99.2754C216.487 98.6568 217.136 98.1781 217.89 97.8391C218.644 97.4917 219.483 97.318 220.406 97.318C221.338 97.318 222.182 97.4917 222.936 97.8391C223.69 98.1781 224.338 98.6568 224.88 99.2754C225.423 99.8939 225.838 100.627 226.126 101.474C226.414 102.322 226.558 103.245 226.558 104.245V104.665C226.558 105.664 226.414 106.588 226.126 107.435C225.838 108.274 225.423 109.003 224.88 109.622C224.347 110.24 223.703 110.723 222.948 111.07C222.194 111.409 221.355 111.579 220.432 111.579C219.5 111.579 218.657 111.409 217.902 111.07C217.148 110.723 216.5 110.24 215.958 109.622C215.416 109.003 215 108.274 214.712 107.435C214.424 106.588 214.28 105.664 214.28 104.665ZM215.793 104.245V104.665C215.793 105.419 215.894 106.135 216.098 106.813C216.301 107.482 216.598 108.079 216.987 108.605C217.377 109.122 217.86 109.528 218.436 109.825C219.013 110.121 219.678 110.27 220.432 110.27C221.177 110.27 221.834 110.121 222.402 109.825C222.978 109.528 223.461 109.122 223.851 108.605C224.241 108.079 224.533 107.482 224.728 106.813C224.931 106.135 225.033 105.419 225.033 104.665V104.245C225.033 103.499 224.931 102.792 224.728 102.122C224.533 101.453 224.236 100.856 223.838 100.33C223.448 99.805 222.965 99.3898 222.389 99.0847C221.813 98.7797 221.152 98.6272 220.406 98.6272C219.661 98.6272 219 98.7797 218.424 99.0847C217.856 99.3898 217.373 99.805 216.975 100.33C216.585 100.856 216.288 101.453 216.085 102.122C215.89 102.792 215.793 103.499 215.793 104.245Z" fill="#2C2F24"/>
<path d="M227.925 104.665V104.245C227.925 103.245 228.069 102.322 228.357 101.474C228.645 100.627 229.056 99.8939 229.59 99.2754C230.132 98.6568 230.78 98.1781 231.535 97.8391C232.289 97.4917 233.128 97.318 234.051 97.318C234.983 97.318 235.826 97.4917 236.581 97.8391C237.335 98.1781 237.983 98.6568 238.525 99.2754C239.067 99.8939 239.483 100.627 239.771 101.474C240.059 102.322 240.203 103.245 240.203 104.245V104.665C240.203 105.664 240.059 106.588 239.771 107.435C239.483 108.274 239.067 109.003 238.525 109.622C237.991 110.24 237.347 110.723 236.593 111.07C235.839 111.409 235 111.579 234.077 111.579C233.145 111.579 232.301 111.409 231.547 111.07C230.793 110.723 230.145 110.24 229.603 109.622C229.06 109.003 228.645 108.274 228.357 107.435C228.069 106.588 227.925 105.664 227.925 104.665ZM229.437 104.245V104.665C229.437 105.419 229.539 106.135 229.742 106.813C229.946 107.482 230.242 108.079 230.632 108.605C231.022 109.122 231.505 109.528 232.081 109.825C232.657 110.121 233.322 110.27 234.077 110.27C234.822 110.27 235.479 110.121 236.047 109.825C236.623 109.528 237.106 109.122 237.496 108.605C237.885 108.079 238.178 107.482 238.373 106.813C238.576 106.135 238.678 105.419 238.678 104.665V104.245C238.678 103.499 238.576 102.792 238.373 102.122C238.178 101.453 237.881 100.856 237.483 100.33C237.093 99.805 236.61 99.3898 236.034 99.0847C235.458 98.7797 234.797 98.6272 234.051 98.6272C233.306 98.6272 232.645 98.7797 232.068 99.0847C231.501 99.3898 231.018 99.805 230.619 100.33C230.23 100.856 229.933 101.453 229.73 102.122C229.535 102.792 229.437 103.499 229.437 104.245Z" fill="#2C2F24"/>
<path d="M251.344 108.656V91.8018H252.869V111.325H251.445L251.344 108.656ZM241.798 104.588V104.321C241.798 103.254 241.921 102.292 242.167 101.436C242.413 100.572 242.764 99.8346 243.222 99.2245C243.688 98.606 244.247 98.1357 244.9 97.8137C245.552 97.4832 246.289 97.318 247.111 97.318C247.916 97.318 248.628 97.4493 249.247 97.712C249.865 97.9747 250.395 98.3518 250.835 98.8432C251.284 99.3347 251.645 99.9194 251.916 100.597C252.195 101.275 252.399 102.029 252.526 102.86V106.253C252.424 107.033 252.238 107.749 251.967 108.401C251.695 109.045 251.335 109.609 250.886 110.092C250.437 110.566 249.895 110.935 249.259 111.198C248.632 111.452 247.908 111.579 247.086 111.579C246.272 111.579 245.539 111.409 244.887 111.07C244.235 110.732 243.68 110.253 243.222 109.634C242.764 109.007 242.413 108.266 242.167 107.41C241.921 106.554 241.798 105.614 241.798 104.588ZM243.324 104.321V104.588C243.324 105.393 243.404 106.139 243.565 106.825C243.726 107.512 243.972 108.109 244.302 108.617C244.633 109.126 245.052 109.524 245.561 109.812C246.069 110.1 246.671 110.244 247.365 110.244C248.238 110.244 248.971 110.079 249.564 109.749C250.157 109.41 250.632 108.965 250.988 108.414C251.344 107.855 251.602 107.245 251.763 106.584V102.631C251.662 102.182 251.513 101.724 251.318 101.258C251.123 100.792 250.857 100.364 250.518 99.9744C250.187 99.5762 249.763 99.2584 249.247 99.0212C248.738 98.7754 248.12 98.6526 247.391 98.6526C246.688 98.6526 246.082 98.7966 245.573 99.0847C245.065 99.3728 244.641 99.7753 244.302 100.292C243.972 100.801 243.726 101.398 243.565 102.084C243.404 102.771 243.324 103.516 243.324 104.321Z" fill="#2C2F24"/>
<path d="M142.75 92.6999H148.493C154.273 92.6999 158.866 96.2544 158.866 102.248C158.866 108.781 154.918 112.12 148.493 112.12H142.75V92.6999ZM145.514 109.679H148.421C153.195 109.679 155.852 107.382 155.852 102.355C155.852 97.8336 152.764 95.1406 148.744 95.1406H145.477V109.679H145.514ZM165.328 94.7458H162.384V91.8018H165.328V94.7458ZM162.528 97.9408H165.149V112.156H162.528V97.9408ZM170.031 92.6999H175.774C181.553 92.6999 186.148 96.2544 186.148 102.248C186.148 108.781 182.2 112.12 175.774 112.12H170.031V92.6999ZM172.831 109.679H175.738C180.512 109.679 183.169 107.382 183.169 102.355C183.169 97.8336 180.081 95.1406 176.06 95.1406H172.794V109.679H172.831ZM192.609 94.7458H189.665V91.8018H192.609V94.7458ZM189.845 97.9408H192.465V112.156H189.845V97.9408Z" fill="#2C2F24"/>
<path fill-rule="evenodd" clip-rule="evenodd" d="M114.527 110.431C120.988 110.216 126.087 105.083 126.157 98.7286V93.2381H133.265V99.3052C133.121 109.176 124.541 116.929 114.527 117.146C104.332 117.072 95.6816 109.247 95.5745 99.3025V88.4272C95.5745 87.3148 96.2922 86.5957 97.368 86.5957H126.157V93.2381H103.579C103.004 93.2381 102.646 93.5976 102.646 94.1715V98.6228C102.717 105.048 107.923 110.36 114.527 110.431Z" fill="#FC9153"/>
<defs>
<filter id="filter0_d_0_703" x="0" y="-3.6478e-05" width="349.149" height="209.149" filterUnits="userSpaceOnUse" color-interpolation-filters="sRGB">
<feFlood flood-opacity="0" result="BackgroundImageFix"/>
<feColorMatrix in="SourceAlpha" type="matrix" values="0 0 0 0 0 0 0 0 0 0 0 0 0 0 0 0 0 0 127 0" result="hardAlpha"/>
<feOffset dy="2.97872"/>
<feGaussianBlur stdDeviation="29.7872"/>
<feComposite in2="hardAlpha" operator="out"/>
<feColorMatrix type="matrix" values="0 0 0 0 0 0 0 0 0 0 0 0 0 0 0 0 0 0 0.08 0"/>
<feBlend mode="normal" in2="BackgroundImageFix" result="effect1_dropShadow_0_703"/>
<feBlend mode="normal" in="SourceGraphic" in2="effect1_dropShadow_0_703" result="shape"/>
</filter>
</defs>
</svg>
