<svg width="380" height="210" viewBox="0 0 380 210" fill="none" xmlns="http://www.w3.org/2000/svg">
<g filter="url(#filter0_d_0_687)">
<rect x="59.5745" y="56.5957" width="260" height="90" rx="12" fill="white"/>
<rect x="60.0745" y="57.0957" width="259" height="89" rx="11.5" stroke="#F9F9F7"/>
</g>
<path d="M167.381 113H171.179L170.535 110.05V92.5167H166.906V100.52C165.821 99.2655 164.295 98.5194 162.531 98.5194C158.903 98.5194 156.088 101.538 156.088 105.912C156.088 110.321 158.903 113.306 162.531 113.306C164.329 113.306 165.889 112.526 166.974 111.203L167.381 113ZM239.142 102.453C239.888 102.453 240.566 102.657 241.177 103.098L242.906 99.2315C242.092 98.7228 241.177 98.5194 240.261 98.5194C238.633 98.5194 237.243 99.2655 236.395 100.656L236.022 98.8585H232.291L232.902 101.639V113.034H236.53V103.979C237.005 103.03 237.921 102.453 239.142 102.453ZM249.757 109.507C247.654 109.507 246.094 108.117 246.094 105.946C246.094 103.742 247.654 102.385 249.757 102.385C251.893 102.385 253.419 103.742 253.419 105.946C253.419 108.083 251.893 109.507 249.757 109.507ZM159.615 105.912C159.615 103.708 161.175 102.352 163.278 102.352C165.414 102.352 166.94 103.708 166.94 105.912C166.94 108.083 165.414 109.473 163.278 109.473C161.175 109.507 159.615 108.083 159.615 105.912ZM265.865 109.507C263.763 109.507 262.203 108.117 262.203 105.946C262.203 103.742 263.763 102.385 265.865 102.385C268.002 102.385 269.528 103.742 269.528 105.946C269.494 108.083 267.968 109.507 265.865 109.507ZM179.997 102.148C181.862 102.148 183.083 103.03 183.49 104.658H176.504C176.877 102.996 178.132 102.148 179.997 102.148ZM223.372 102.148C225.237 102.148 226.458 103.03 226.865 104.658H219.879C220.32 102.996 221.541 102.148 223.372 102.148ZM205.669 113H211.502L215.301 98.7907H211.333L208.586 110.321L205.805 98.8246H201.905L205.669 113ZM196.343 113H199.972V98.7907H196.343V113ZM180.539 113.272C182.574 113.272 184.541 112.695 186.203 111.644L184.813 108.524C183.524 109.236 182.032 109.609 180.573 109.609C178.674 109.609 177.352 108.863 176.741 107.472H186.983C187.085 106.93 187.153 106.455 187.153 105.811C187.153 101.402 184.1 98.4855 180.065 98.4855C175.961 98.4855 172.977 101.47 172.977 105.879C172.943 110.389 175.927 113.272 180.539 113.272ZM273.021 105.912C273.021 101.504 269.969 98.5194 265.865 98.5194C261.728 98.5194 258.71 101.538 258.71 105.912C258.71 110.287 261.762 113.306 265.865 113.306C269.969 113.306 273.021 110.321 273.021 105.912ZM223.881 113.306C225.916 113.306 227.882 112.763 229.544 111.678L228.154 108.558C226.865 109.27 225.373 109.643 223.915 109.643C222.015 109.643 220.693 108.897 220.082 107.506H230.324C230.426 106.964 230.494 106.489 230.494 105.845C230.494 101.436 227.442 98.5194 223.406 98.5194C219.302 98.5194 216.318 101.504 216.318 105.912C216.318 110.457 219.269 113.306 223.881 113.306ZM249.757 113.306C253.894 113.306 256.912 110.287 256.912 105.912C256.912 101.538 253.86 98.5194 249.757 98.5194C245.619 98.5194 242.601 101.538 242.601 105.912C242.601 110.287 245.619 113.306 249.757 113.306ZM189.459 113H193.087V92.5167H189.459V113ZM198.174 96.8576C199.429 96.8576 200.447 95.8402 200.447 94.5515C200.447 93.2628 199.463 92.2454 198.174 92.2454C196.886 92.2454 195.868 93.2628 195.868 94.5515C195.868 95.8402 196.852 96.8576 198.174 96.8576ZM135.808 79.5957L133.739 99.2655L130.212 82.6818L119.088 85.0218L122.582 101.605L106.574 104.997L109.423 118.223L137.605 124.226L144.049 109.813L147.101 80.7827L135.808 79.5957ZM126.889 108.151C126.312 108.693 125.566 108.626 124.718 108.354C123.904 108.083 123.565 107.133 123.836 105.912C124.074 105.031 125.125 104.895 125.702 104.895C125.905 104.895 126.109 104.929 126.312 105.031C126.685 105.2 127.329 105.573 127.465 106.116C127.669 106.93 127.465 107.608 126.889 108.151ZM135.062 109.033C134.621 109.779 133.536 109.88 132.416 109.338C131.67 108.965 131.67 108.083 131.772 107.506C131.806 107.201 131.942 106.896 132.145 106.659C132.416 106.319 132.857 105.879 133.332 105.879C134.18 105.845 134.858 106.218 135.265 106.896C135.672 107.574 135.469 108.32 135.062 109.033Z" fill="#00CCBC"/>
<defs>
<filter id="filter0_d_0_687" x="0" y="-3.6478e-05" width="379.149" height="209.149" filterUnits="userSpaceOnUse" color-interpolation-filters="sRGB">
<feFlood flood-opacity="0" result="BackgroundImageFix"/>
<feColorMatrix in="SourceAlpha" type="matrix" values="0 0 0 0 0 0 0 0 0 0 0 0 0 0 0 0 0 0 127 0" result="hardAlpha"/>
<feOffset dy="2.97872"/>
<feGaussianBlur stdDeviation="29.7872"/>
<feComposite in2="hardAlpha" operator="out"/>
<feColorMatrix type="matrix" values="0 0 0 0 0 0 0 0 0 0 0 0 0 0 0 0 0 0 0.08 0"/>
<feBlend mode="normal" in2="BackgroundImageFix" result="effect1_dropShadow_0_687"/>
<feBlend mode="normal" in="SourceGraphic" in2="effect1_dropShadow_0_687" result="shape"/>
</filter>
</defs>
</svg>
