<svg width="380" height="210" viewBox="0 0 380 210" fill="none" xmlns="http://www.w3.org/2000/svg">
<g filter="url(#filter0_d_0_680)">
<rect x="59.5745" y="56.5957" width="260" height="90" rx="12" fill="white"/>
<rect x="60.0745" y="57.0957" width="259" height="89" rx="11.5" stroke="#F9F9F7"/>
</g>
<path d="M140.578 95.9288H142.957V93.6433C142.957 90.8827 144.483 89.0723 147.528 89.0723L149.054 89.3602V92.1208L147.434 91.8329C146.481 91.8329 146.103 92.4088 146.103 93.359V95.9288H149.148V98.6895H146.099V110.117H143.054V98.6895H140.578V95.9288ZM156.861 95.6445C160.766 95.6445 164.29 98.6895 164.29 103.073C164.29 107.457 160.863 110.499 156.861 110.499C152.858 110.499 149.436 107.454 149.436 103.073C149.436 98.5959 152.956 95.6445 156.861 95.6445ZM156.861 107.738C159.719 107.738 161.241 105.643 161.241 103.073C161.241 100.503 159.719 98.4051 156.861 98.4051C154.003 98.4051 152.48 100.5 152.48 103.073C152.48 105.546 154.007 107.738 156.861 107.738ZM172.957 95.6445C176.862 95.6445 180.382 98.6895 180.382 103.073C180.382 107.457 176.955 110.499 172.957 110.499C168.958 110.499 165.528 107.454 165.528 103.073C165.621 98.5959 169.051 95.6445 172.957 95.6445ZM172.957 107.738C175.811 107.738 177.337 105.643 177.337 103.073C177.337 100.503 175.811 98.4051 172.957 98.4051C170.102 98.4051 168.576 100.5 168.576 103.073C168.576 105.546 170.099 107.738 172.957 107.738ZM196.193 110.117H193.429L193.141 108.883L192.954 108.692L192.763 108.883C191.81 109.833 190.384 110.405 188.858 110.405C184.953 110.405 181.624 107.356 181.624 102.976C181.624 98.5959 184.953 95.5473 188.858 95.5473C190.384 95.5473 191.907 96.1232 192.763 97.0734L192.954 97.2642L193.145 97.0734V89.1694H196.193V110.117ZM189.049 98.3116C186.191 98.3116 184.669 100.406 184.669 102.976C184.669 105.546 186.191 107.644 189.049 107.644C191.622 107.644 193.429 105.546 193.429 102.976C193.429 100.5 191.622 98.3116 189.049 98.3116ZM199.238 95.9288H202.003L202.287 97.167L202.478 97.3578L202.669 97.167C203.619 96.2168 205.048 95.6445 206.574 95.6445C210.475 95.6445 213.808 98.6895 213.808 103.073C213.808 107.457 210.475 110.499 206.574 110.499C205.048 110.499 203.525 109.93 202.669 108.976L202.478 108.785L202.287 108.976V116.596H199.336V95.9288H199.238ZM206.286 107.738C209.144 107.738 210.666 105.643 210.666 103.073C210.666 100.503 209.144 98.4051 206.286 98.4051C203.716 98.4051 201.905 100.5 201.905 103.073C201.905 105.546 203.716 107.738 206.286 107.738ZM221.334 101.263H223.807V100.597C223.807 98.8802 222.666 98.1208 221.046 98.1208C219.715 98.1208 218.858 98.7867 218.383 100.025L215.716 99.4525C216.285 97.0734 218.379 95.5473 221.143 95.5473C224.952 95.5473 226.856 97.4549 226.856 101.166V110.024H224.379L224.091 108.116C223.141 109.548 221.619 110.214 219.617 110.214C217.048 110.214 215.237 108.692 215.237 105.834C215.144 103.073 217.62 101.263 221.334 101.263ZM220.003 107.738C220.953 107.738 221.903 107.45 222.572 106.784C223.332 106.118 223.713 105.262 223.713 104.121V103.833H221.143C219.333 103.833 218.192 104.689 218.192 106.025C218.192 106.975 218.858 107.738 219.999 107.738H220.003ZM229.523 95.9288H232.283L232.571 97.167L232.762 97.3578L232.949 97.167C233.525 96.2168 235.047 95.6445 236.286 95.6445C239.903 95.6445 241.998 98.0236 241.998 101.357V110.117H238.949V101.357C238.855 99.4525 237.905 98.3116 235.904 98.3116C234.094 98.3116 232.665 99.7405 232.571 101.551V110.117H229.523V95.9288ZM258.281 110.117H255.52L255.232 108.883L255.045 108.692L254.854 108.883C253.9 109.833 252.471 110.405 250.949 110.405C247.044 110.405 243.714 107.356 243.714 102.976C243.714 98.5959 247.044 95.5473 250.949 95.5473C252.471 95.5473 253.998 96.1232 254.854 97.0734L255.045 97.2642L255.236 97.0734V89.1694H258.281V110.117ZM251.233 98.3116C248.379 98.3116 246.853 100.406 246.853 102.976C246.853 105.546 248.379 107.644 251.233 107.644C253.807 107.644 255.617 105.546 255.617 102.976C255.617 100.5 253.807 98.3116 251.233 98.3116ZM266.948 101.263H269.424V100.597C269.424 98.8802 268.283 98.1208 266.663 98.1208C265.332 98.1208 264.471 98.7867 263.996 100.025L261.333 99.4525C261.901 97.0734 263.996 95.5473 266.757 95.5473C270.568 95.5473 272.472 97.4549 272.472 101.166V110.024H269.996L269.708 108.116C268.758 109.548 267.232 110.214 265.234 110.214C262.661 110.214 260.854 108.692 260.854 105.834C260.757 103.073 263.14 101.263 266.948 101.263ZM265.616 107.738C266.566 107.738 267.52 107.45 268.186 106.784C268.949 106.118 269.33 105.262 269.33 104.121V103.833H266.757C264.946 103.833 263.805 104.689 263.805 106.025C263.805 106.975 264.471 107.738 265.616 107.738Z" fill="#D70F64"/>
<path d="M119.515 105.643C121.232 105.643 122.661 104.404 122.661 102.882H116.373C116.373 104.404 117.701 105.643 119.515 105.643Z" fill="#D70F64"/>
<path d="M130.096 92.5023C130.859 91.93 131.241 90.9762 131.241 89.9288C131.241 88.0248 129.718 86.5959 127.81 86.5959C126.576 86.5959 125.525 87.1682 124.956 88.122C123.236 87.2862 121.344 86.8623 119.431 86.8838C117.523 86.8883 115.638 87.3109 113.91 88.122C113.334 87.1646 112.29 86.5959 111.052 86.5959C110.156 86.5863 109.293 86.9312 108.651 87.5556C108.008 88.1799 107.638 89.033 107.622 89.9288C107.63 90.4127 107.736 90.89 107.932 91.3321C108.129 91.7743 108.413 92.1723 108.767 92.5023C107.321 94.6012 106.555 97.0943 106.575 99.6432C106.576 103.053 107.93 106.323 110.341 108.734C112.752 111.146 116.022 112.501 119.431 112.503C122.841 112.501 126.11 111.146 128.52 108.736C130.931 106.325 132.286 103.056 132.288 99.6468C132.288 96.9834 131.525 94.5035 130.096 92.5059V92.5023ZM119.529 111.452C113.046 111.452 107.719 106.118 107.719 99.6468C107.719 97.1669 108.479 94.8814 109.717 92.9774C110.869 91.235 112.486 89.8498 114.385 88.9786C115.908 88.2156 117.718 87.834 119.525 87.834C121.332 87.834 123.142 88.2156 124.665 88.9786C126.572 89.9288 128.095 91.2641 129.333 92.9774C130.571 94.885 131.331 97.1669 131.331 99.6432C131.331 106.122 126 111.449 119.525 111.449L119.529 111.452Z" fill="#D70F64"/>
<path d="M119.512 102.12C119.706 102.213 121.707 101.454 121.707 100.5C121.707 99.9277 120.088 99.8342 119.512 99.8342C118.936 99.8342 117.324 99.9277 117.324 100.5C117.23 101.454 119.321 102.213 119.512 102.12ZM126.941 94.1186C125.8 93.3591 123.323 92.9776 122.37 94.2157C122.37 94.2157 121.132 95.5475 122.37 96.8792C123.608 98.2109 124.464 99.5498 124.752 100.597C125.04 101.738 125.512 102.12 126.372 102.12C127.232 102.12 128.942 100.788 129.226 98.596C129.298 97.7111 129.123 96.8236 128.719 96.0328C128.315 95.2421 127.7 94.5792 126.941 94.1186ZM124.371 96.8828C123.989 96.8828 123.705 96.5948 123.705 96.2169C123.705 95.839 123.993 95.5475 124.371 95.5475C124.749 95.5475 125.037 95.8354 125.037 96.2169C125.037 96.5984 124.749 96.8828 124.371 96.8828ZM116.56 94.2157C115.61 92.9776 113.134 93.3591 111.989 94.1186C110.845 94.878 109.513 96.4041 109.704 98.596C109.895 100.788 111.612 102.12 112.562 102.12C113.418 102.12 113.893 101.645 114.181 100.597C114.469 99.4526 115.42 98.2145 116.56 96.8828C117.799 95.4539 116.56 94.2157 116.56 94.2157ZM114.754 96.8792C114.372 96.8792 114.084 96.5948 114.084 96.2169C114.084 95.839 114.372 95.5475 114.754 95.5475C115.135 95.5475 115.42 95.8354 115.42 96.2169C115.42 96.5984 115.132 96.8792 114.754 96.8792Z" fill="#D70F64"/>
<defs>
<filter id="filter0_d_0_680" x="0" y="-3.6478e-05" width="379.149" height="209.149" filterUnits="userSpaceOnUse" color-interpolation-filters="sRGB">
<feFlood flood-opacity="0" result="BackgroundImageFix"/>
<feColorMatrix in="SourceAlpha" type="matrix" values="0 0 0 0 0 0 0 0 0 0 0 0 0 0 0 0 0 0 127 0" result="hardAlpha"/>
<feOffset dy="2.97872"/>
<feGaussianBlur stdDeviation="29.7872"/>
<feComposite in2="hardAlpha" operator="out"/>
<feColorMatrix type="matrix" values="0 0 0 0 0 0 0 0 0 0 0 0 0 0 0 0 0 0 0.08 0"/>
<feBlend mode="normal" in2="BackgroundImageFix" result="effect1_dropShadow_0_680"/>
<feBlend mode="normal" in="SourceGraphic" in2="effect1_dropShadow_0_680" result="shape"/>
</filter>
</defs>
</svg>
